<svg width="60" height="60" viewBox="0 0 60 60" fill="none" xmlns="http://www.w3.org/2000/svg">
<circle cx="30" cy="30" r="30" fill="#A8A634"/>
<rect width="34.8611" height="33.4667" transform="translate(12.5001 13.3335)" fill="#A8A634"/>
<path d="M21.6076 22.6067L25.1809 16.9173C25.7474 16.011 27.1128 16.011 27.6792 16.9173L29.829 20.3477L28.0424 23.2202L26.5898 25.4792L21.6076 22.6067ZM44.7757 30.7223L42.4516 27.0131L37.4258 29.802L40.636 34.9475H42.2773C43.3813 34.9475 44.3835 34.3479 44.8774 33.3997C45.0807 33.0092 45.1824 32.5909 45.1824 32.1586C45.1824 31.6566 45.0372 31.1686 44.7757 30.7223ZM36.4671 41.9197H38.646C39.7499 41.9197 40.7522 41.3201 41.246 40.3719L43.3522 36.342H36.4671V33.5531L30.657 39.1308L36.4671 44.7086V41.9197ZM27.7519 36.342H21.5059L20.2858 38.3081C19.85 39.0053 19.821 39.8699 20.1986 40.609C20.6053 41.4038 21.4623 41.9197 22.4065 41.9197H27.7519V36.342ZM22.116 32.6467L24.6289 34.0969L22.6389 26.4414L14.679 28.3518L17.1483 29.7741L16.5527 30.7363C16.0443 31.559 16.0008 32.563 16.4511 33.4136L18.8187 37.9595L22.116 32.6467ZM37.9487 19.8038L36.0604 16.7779C35.523 15.9412 34.5788 15.4253 33.5621 15.4253H28.4346L32.9665 22.6764L30.4681 24.1127L38.4426 26.0231L40.4326 18.3676L37.9487 19.8038Z" fill="white"/>
</svg>
