<svg width="64" height="64" viewBox="0 0 64 64" fill="none" xmlns="http://www.w3.org/2000/svg">
<circle cx="32.4297" cy="32.4296" r="31.4667" fill="#34A853"/>
<rect width="36.5654" height="35.1028" transform="translate(14.0742 14.9482)" fill="#34A853"/>
<path d="M23.6274 24.6746L27.3753 18.7071C27.9695 17.7564 29.4017 17.7564 29.9958 18.7071L32.2507 22.3051L30.3767 25.3181L28.8532 27.6876L23.6274 24.6746ZM47.9281 33.187L45.4904 29.2964L40.2189 32.2217L43.586 37.6187H45.3076C46.4655 37.6187 47.5168 36.9898 48.0348 35.9952C48.2481 35.5857 48.3547 35.1469 48.3547 34.6935C48.3547 34.167 48.2024 33.655 47.9281 33.187ZM39.2134 44.9318H41.4987C42.6566 44.9318 43.7079 44.3029 44.2259 43.3083L46.4351 39.0813H39.2134V36.1561L33.1191 42.0066L39.2134 47.857V44.9318ZM30.072 39.0813H23.5207L22.2409 41.1436C21.7839 41.8749 21.7534 42.7818 22.1495 43.557C22.5761 44.3906 23.475 44.9318 24.4653 44.9318H30.072V39.0813ZM24.1606 35.2054L26.7964 36.7265L24.7091 28.6968L16.36 30.7006L18.95 32.1924L18.3254 33.2016C17.7921 34.0646 17.7464 35.1177 18.2187 36.0098L20.7021 40.778L24.1606 35.2054ZM40.7674 21.7347L38.7868 18.5608C38.2231 17.6833 37.2328 17.1421 36.1663 17.1421H30.7881L35.5416 24.7477L32.9211 26.2542L41.2854 28.258L43.3727 20.2282L40.7674 21.7347Z" fill="white"/>
</svg>
