<svg width="63" height="64" viewBox="0 0 63 64" fill="none" xmlns="http://www.w3.org/2000/svg">
<circle cx="31.5035" cy="32.4296" r="31.4667" fill="#CE7E00"/>
<rect width="34.963" height="34.963" transform="translate(14.022 14.9482)" fill="#CE7E00"/>
<path d="M31.5036 46.9971C23.4767 46.9971 16.9357 40.4561 16.9357 32.4292C16.9357 24.4023 23.4767 17.8613 31.5036 17.8613C39.5305 17.8613 46.0715 23.7468 46.0715 30.9724C46.0715 35.7944 42.1527 39.7132 37.3307 39.7132H34.7522C34.3443 39.7132 34.0238 40.0337 34.0238 40.4416C34.0238 40.6164 34.0967 40.7766 34.2132 40.9223C34.8105 41.607 35.1455 42.4665 35.1455 43.3552C35.1455 45.3655 33.5139 46.9971 31.5036 46.9971ZM31.5036 20.7749C25.0791 20.7749 19.8492 26.0048 19.8492 32.4292C19.8492 38.8537 25.0791 44.0836 31.5036 44.0836C31.9115 44.0836 32.232 43.7631 32.232 43.3552C32.232 43.1221 32.1154 42.9473 32.028 42.8453C31.4307 42.1752 31.1102 41.3157 31.1102 40.4416C31.1102 38.4312 32.7418 36.7996 34.7522 36.7996H37.3307C40.5502 36.7996 43.1579 34.1919 43.1579 30.9724C43.1579 25.3492 37.928 20.7749 31.5036 20.7749Z" fill="white"/>
<path d="M23.4912 33.886C24.6981 33.886 25.6764 32.9077 25.6764 31.7008C25.6764 30.494 24.6981 29.5156 23.4912 29.5156C22.2844 29.5156 21.306 30.494 21.306 31.7008C21.306 32.9077 22.2844 33.886 23.4912 33.886Z" fill="white"/>
<path d="M27.8616 28.0589C29.0684 28.0589 30.0468 27.0805 30.0468 25.8737C30.0468 24.6668 29.0684 23.6885 27.8616 23.6885C26.6548 23.6885 25.6764 24.6668 25.6764 25.8737C25.6764 27.0805 26.6548 28.0589 27.8616 28.0589Z" fill="white"/>
<path d="M35.1455 28.0589C36.3524 28.0589 37.3307 27.0805 37.3307 25.8737C37.3307 24.6668 36.3524 23.6885 35.1455 23.6885C33.9387 23.6885 32.9604 24.6668 32.9604 25.8737C32.9604 27.0805 33.9387 28.0589 35.1455 28.0589Z" fill="white"/>
<path d="M39.5159 33.886C40.7228 33.886 41.7011 32.9077 41.7011 31.7008C41.7011 30.494 40.7228 29.5156 39.5159 29.5156C38.3091 29.5156 37.3307 30.494 37.3307 31.7008C37.3307 32.9077 38.3091 33.886 39.5159 33.886Z" fill="white"/>
</svg>
