<svg width="64" height="64" viewBox="0 0 64 64" fill="none" xmlns="http://www.w3.org/2000/svg">
<circle cx="31.5779" cy="31.6962" r="31.4667" fill="#0078A8"/>
<rect width="34.963" height="34.963" transform="translate(14.0963 14.2148)" fill="#0078A8"/>
<path d="M45.4172 23.6839V34.6098H42.5037V25.1406L35.2197 20.0419L27.9358 25.1406V27.3258H25.0222V23.6839L35.2197 16.3999L45.4172 23.6839ZM37.4049 24.4122H35.9481V25.869H37.4049V24.4122ZM34.4913 24.4122H33.0345V25.869H34.4913V24.4122ZM37.4049 27.3258H35.9481V28.7826H37.4049V27.3258ZM34.4913 27.3258H33.0345V28.7826H34.4913V27.3258ZM42.5037 37.5234H39.5901C39.5901 35.7752 38.4975 34.2019 36.8659 33.59L27.8921 30.2394H16.2814V46.2641H25.0222V44.1663L35.2197 46.9925L46.874 43.3505V41.8937C46.874 39.4755 44.9219 37.5234 42.5037 37.5234ZM19.195 43.3505V33.153H22.1086V43.3505H19.195ZM35.176 43.9478L25.0222 41.1362V33.153H27.3676L35.8461 36.3142C36.3414 36.5036 36.6765 36.9843 36.6765 37.5234C36.6765 37.5234 33.7775 37.4505 33.3259 37.3048L29.8587 36.154L28.9409 38.9219L32.4081 40.0727C33.1511 40.3204 33.9232 40.4515 34.7098 40.4515H42.5037C43.0718 40.4515 43.5817 40.7866 43.8148 41.2673L35.176 43.9478Z" fill="white"/>
</svg>
