<svg width="64" height="64" viewBox="0 0 64 64" fill="none" xmlns="http://www.w3.org/2000/svg">
<circle cx="32.4297" cy="31.6962" r="31.4667" fill="#6A329F"/>
<rect width="34.963" height="34.963" transform="translate(14.9482 14.2148)" fill="#6A329F"/>
<path d="M32.4297 25.8694C35.2413 25.8694 37.5285 28.1566 37.5285 30.9682C37.5285 33.7798 35.2413 36.0669 32.4297 36.0669C29.6181 36.0669 27.331 33.7798 27.331 30.9682C27.331 28.1566 29.6181 25.8694 32.4297 25.8694ZM39.029 26.423L44.8124 20.6541V24.4126H47.726V15.6719H38.9853V18.5855H42.7438L36.9603 24.3689C35.6784 23.4803 34.1196 22.9558 32.4297 22.9558C30.7398 22.9558 29.1811 23.4803 27.8991 24.3689L26.9522 23.422L29.0063 21.3679L26.9522 19.2993L24.8835 21.3534L22.1156 18.5855H25.8742V15.6719H17.1334V24.4126H20.047V20.6541L22.8295 23.422L20.7608 25.4906L22.8149 27.5447L24.869 25.4906L25.8159 26.4376C24.9418 27.7195 24.4174 29.2783 24.4174 30.9682C24.4174 34.9015 27.2435 38.1647 30.9729 38.8494V41.8941H28.0593V44.8077H30.9729V47.7213H33.8865V44.8077H36.8001V41.8941H33.8865V38.8494C37.6159 38.1647 40.4421 34.9015 40.4421 30.9682C40.4421 29.2783 39.9176 27.7195 39.029 26.423Z" fill="white"/>
</svg>
