<svg width="46" height="46" viewBox="0 0 46 46" fill="none" xmlns="http://www.w3.org/2000/svg">
<circle cx="23" cy="23" r="23" fill="#072A32"/>
<path d="M23 23.6774C22.043 23.6774 21.1075 23.3936 20.3118 22.862C19.516 22.3303 18.8958 21.5746 18.5296 20.6904C18.1634 19.8062 18.0676 18.8333 18.2543 17.8947C18.441 16.9561 18.9018 16.0939 19.5785 15.4172C20.2552 14.7405 21.1174 14.2797 22.056 14.093C22.9946 13.9063 23.9675 14.0021 24.8517 14.3683C25.7359 14.7346 26.4916 15.3547 27.0232 16.1505C27.5549 16.9462 27.8387 17.8817 27.8387 18.8387C27.8387 20.122 27.3289 21.3528 26.4215 22.2602C25.514 23.1676 24.2833 23.6774 23 23.6774ZM23 15.9355C22.4258 15.9355 21.8645 16.1058 21.3871 16.4248C20.9096 16.7438 20.5375 17.1972 20.3178 17.7277C20.098 18.2582 20.0405 18.8419 20.1526 19.4051C20.2646 19.9683 20.5411 20.4856 20.9471 20.8916C21.3531 21.2976 21.8704 21.5741 22.4336 21.6862C22.9968 21.7982 23.5805 21.7407 24.111 21.5209C24.6415 21.3012 25.0949 20.9291 25.4139 20.4517C25.733 19.9742 25.9032 19.4129 25.9032 18.8387C25.9032 18.0687 25.5974 17.3303 25.0529 16.7858C24.5084 16.2414 23.77 15.9355 23 15.9355ZM32.0323 32.7097C31.7766 32.7063 31.5324 32.6033 31.3517 32.4225C31.1709 32.2418 31.0679 31.9976 31.0645 31.7419C31.0645 29.2258 29.6968 27.5484 23 27.5484C16.3032 27.5484 14.9355 29.2258 14.9355 31.7419C14.9355 31.9986 14.8335 32.2447 14.652 32.4262C14.4706 32.6077 14.2244 32.7097 13.9677 32.7097C13.7111 32.7097 13.4649 32.6077 13.2834 32.4262C13.102 32.2447 13 31.9986 13 31.7419C13 25.6129 20.0065 25.6129 23 25.6129C25.9935 25.6129 33 25.6129 33 31.7419C32.9967 31.9976 32.8936 32.2418 32.7129 32.4225C32.5321 32.6033 32.2879 32.7063 32.0323 32.7097Z" fill="#6BFEAB"/>
</svg>
