<svg width="24" height="24" viewBox="0 0 24 24" fill="none" xmlns="http://www.w3.org/2000/svg">
<path fill-rule="evenodd" clip-rule="evenodd" d="M12 2C9.23858 2 7 4.23858 7 7C7 9.76142 9.23858 12 12 12C14.7614 12 17 9.76142 17 7C17 4.23858 14.7614 2 12 2ZM9 7C9 5.34315 10.3431 4 12 4C13.6569 4 15 5.34315 15 7C15 8.65685 13.6569 10 12 10C10.3431 10 9 8.65685 9 7Z" fill="#072A32"/>
<path d="M5 22C5 18.134 8.13401 15 12 15C15.866 15 19 18.134 19 22H21C21 17.0294 16.9706 13 12 13C7.02944 13 3 17.0294 3 22H5Z" fill="#072A32"/>
</svg>
