<svg width="60" height="60" viewBox="0 0 60 60" fill="none" xmlns="http://www.w3.org/2000/svg">
<circle cx="30" cy="30" r="30" fill="#34A853"/>
<path d="M30.0318 38.6834C30.3779 38.9139 30.7383 39.1221 31.111 39.3067V44.6393C31.111 44.9255 30.9973 45.2 30.7949 45.4024C30.5925 45.6047 30.318 45.7184 30.0318 45.7184C29.7455 45.7184 29.471 45.6047 29.2687 45.4024C29.0663 45.2 28.9526 44.9255 28.9526 44.6393V39.3067C29.3252 39.1221 29.6857 38.9139 30.0318 38.6834ZM39.4882 21.7859C38.7075 19.9219 37.3934 18.3302 35.7109 17.2108C34.0284 16.0914 32.0526 15.4941 30.0318 15.4941C28.0109 15.4941 26.0351 16.0914 24.3526 17.2108C22.6701 18.3302 21.356 19.9219 20.5753 21.7859C18.8893 22.5565 17.4603 23.7953 16.4582 25.3548C15.4561 26.9144 14.9233 28.729 14.923 30.5827C14.9095 35.7359 19.2398 40.1876 24.3849 40.3225C25.9673 40.36 27.5351 40.0113 28.9526 39.3067V34.5137L23.0736 31.5756C22.8175 31.4475 22.6227 31.2229 22.5321 30.9512C22.4415 30.6795 22.4626 30.3829 22.5907 30.1267C22.7188 29.8706 22.9434 29.6758 23.2151 29.5852C23.4868 29.4946 23.7834 29.5157 24.0395 29.6438L28.9526 32.1017V25.2137C28.9526 24.9275 29.0663 24.653 29.2687 24.4506C29.471 24.2482 29.7455 24.1345 30.0318 24.1345C30.318 24.1345 30.5925 24.2482 30.7949 24.4506C30.9973 24.653 31.111 24.9275 31.111 25.2137V28.8641L36.024 26.4062C36.1508 26.3428 36.2889 26.305 36.4304 26.2949C36.5719 26.2849 36.7139 26.3028 36.8484 26.3476C36.983 26.3925 37.1074 26.4634 37.2145 26.5563C37.3216 26.6492 37.4094 26.7623 37.4728 26.8892C37.5363 27.016 37.5741 27.1541 37.5841 27.2955C37.5942 27.437 37.5763 27.5791 37.5314 27.7136C37.4866 27.8481 37.4157 27.9725 37.3228 28.0796C37.2298 28.1868 37.1167 28.2746 36.9899 28.338L31.111 31.2761V39.3067C32.4526 39.9728 33.9298 40.3205 35.4278 40.3225H35.6733C40.8237 40.1876 45.1554 35.7359 45.1405 30.5827C45.1403 28.729 44.6074 26.9144 43.6053 25.3548C42.6033 23.7953 41.1742 22.5565 39.4882 21.7859Z" fill="white"/>
</svg>
