<svg width="63" height="64" viewBox="0 0 63 64" fill="none" xmlns="http://www.w3.org/2000/svg">
<circle cx="31.5035" cy="31.6962" r="31.4667" fill="#C90076"/>
<rect width="34.963" height="34.963" transform="translate(14.022 14.2148)" fill="#C90076"/>
<path d="M38.059 32.7893C42.5605 28.6958 46.7997 24.8644 46.7997 21.5721C46.7997 18.877 44.6874 16.7646 41.9923 16.7646C40.4773 16.7646 39.0059 17.4785 38.059 18.5856C37.0975 17.4785 35.6407 16.7646 34.1257 16.7646C31.4306 16.7646 29.3183 18.877 29.3183 21.5721C29.3183 24.8644 33.5575 28.6958 38.059 32.7893ZM34.1257 19.6782C34.7667 19.6782 35.4222 19.9842 35.8447 20.4795L38.059 23.0871L40.2733 20.4795C40.6958 19.9842 41.3514 19.6782 41.9923 19.6782C43.0704 19.6782 43.8862 20.494 43.8862 21.5721C43.8862 23.2037 40.9143 26.1901 38.059 28.8414C35.2037 26.1901 32.2318 23.1891 32.2318 21.5721C32.2318 20.494 33.0476 19.6782 34.1257 19.6782Z" fill="white"/>
<path d="M42.4294 37.1597H39.5158C39.5158 35.4116 38.4232 33.8382 36.7916 33.2264L27.8178 29.8758H16.2072V45.9004H24.9479V43.8027L35.1454 46.6288L46.7997 42.9869V41.5301C46.7997 39.1118 44.8476 37.1597 42.4294 37.1597ZM19.1207 42.9869V32.7893H22.0343V42.9869H19.1207ZM35.1017 43.5842L24.9479 40.7725V32.7893H27.2933L35.7718 35.9506C36.2672 36.14 36.6022 36.6207 36.6022 37.1597C36.6022 37.1597 33.7032 37.0869 33.2516 36.9412L29.7844 35.7903L28.8667 38.5582L32.3338 39.7091C33.0768 39.9567 33.8489 40.0879 34.6355 40.0879H42.4294C42.9975 40.0879 43.5074 40.4229 43.7405 40.9037L35.1017 43.5842Z" fill="white"/>
</svg>
