<svg width="64" height="64" viewBox="0 0 64 64" fill="none" xmlns="http://www.w3.org/2000/svg">
<circle cx="31.5779" cy="32.4296" r="31.4667" fill="#744700"/>
<rect width="34.963" height="34.963" transform="translate(14.0963 14.9482)" fill="#744700"/>
<path d="M45.6924 42.1449L37.9714 34.4239H36.5291L32.8289 38.1242V39.5664L40.5499 47.2874C41.118 47.8555 42.0358 47.8555 42.604 47.2874L45.6924 44.199C46.2605 43.6454 46.2605 42.7131 45.6924 42.1449ZM41.5696 44.2136L35.3928 38.0368L36.4272 37.0025L42.604 43.1792L41.5696 44.2136Z" fill="white"/>
<path d="M39.3845 30.5197L41.4385 28.4657L44.5269 31.5541C46.2314 29.8496 46.2314 27.0817 44.5269 25.3773L39.3699 20.2202L37.3158 22.2743V18.1662L36.2961 17.1318L31.139 22.2889L32.1733 23.3232H36.2961L34.242 25.3773L35.7862 26.9215L31.5761 31.1316L25.5595 25.115V23.0464L21.16 18.6469L17.0373 22.7696L21.4514 27.1837H23.5054L29.522 33.2002L28.2837 34.4385H25.1953L17.4743 42.1595C16.9062 42.7276 16.9062 43.6454 17.4743 44.2136L20.5627 47.302C21.1309 47.8701 22.0487 47.8701 22.6168 47.302L30.3378 39.581V36.4926L37.8403 28.9901L39.3845 30.5197ZM27.7593 38.0222L21.5825 44.199L20.5482 43.1647L26.7249 36.9879L27.7593 38.0222Z" fill="white"/>
</svg>
