<svg width="30" height="44" viewBox="0 0 30 44" fill="none" xmlns="http://www.w3.org/2000/svg">
<path d="M4.48 7.136V10.576C4.48 11.024 4.34133 11.3867 4.064 11.664C3.78667 11.9307 3.424 12.064 2.976 12.064H1.824C1.376 12.064 1.01333 11.9307 0.736 11.664C0.458667 11.3867 0.32 11.024 0.32 10.576V2.224C0.32 1.776 0.458667 1.41867 0.736 1.152C1.01333 0.874666 1.376 0.735999 1.824 0.735999H2.976C3.424 0.735999 3.78667 0.874666 4.064 1.152C4.34133 1.41867 4.48 1.776 4.48 2.224V5.808L2.96 5.648V2.304C2.96 2.25067 2.93333 2.224 2.88 2.224H1.92C1.86667 2.224 1.84 2.25067 1.84 2.304V10.496C1.84 10.5493 1.86667 10.576 1.92 10.576H2.88C2.93333 10.576 2.96 10.5493 2.96 10.496V7.136H4.48ZM6.79688 0.799999L6.81288 10.512H7.21288L7.37288 12H5.29288L5.27688 2.288H4.95688L5.11688 0.799999H6.79688ZM9.21313 1.872L9.37313 3.36H7.85313V1.872H9.21313ZM9.37313 4V12H7.85313V5.488H7.61313L7.77313 4H9.37313ZM14.2776 12H12.7576V5.568C12.7576 5.51467 12.731 5.488 12.6776 5.488H11.8296V12H10.3096V5.488H9.92563L10.0856 4H11.8296V4.624L12.2296 4H12.6616C13.0136 4 13.3176 4.07467 13.5736 4.224C13.8296 4.37333 14.0163 4.576 14.1336 4.832L14.6776 4H15.1096C15.6003 4 15.9896 4.13867 16.2776 4.416C16.5763 4.69333 16.7256 5.05067 16.7256 5.488V10.512H17.1096L16.9496 12H15.2056V5.568C15.2056 5.51467 15.179 5.488 15.1256 5.488H14.2776V12ZM19.2016 12C18.711 12 18.3163 11.8613 18.0176 11.584C17.7296 11.296 17.5856 10.9387 17.5856 10.512V5.488C17.5856 5.05067 17.7296 4.69333 18.0176 4.416C18.3163 4.13867 18.711 4 19.2016 4H19.2656C19.5536 4 19.8096 4.06933 20.0336 4.208V4H21.5536V10.512H21.7776L21.9376 12H20.0336V11.376L19.6336 12H19.2016ZM19.1856 5.488C19.1323 5.488 19.1056 5.51467 19.1056 5.568V10.432C19.1056 10.4853 19.1323 10.512 19.1856 10.512H20.0336V5.488H19.1856ZM25.2015 10.512V12H24.2735C23.8255 12 23.4628 11.8667 23.1855 11.6C22.9082 11.3227 22.7695 10.96 22.7695 10.512V5.488H22.0975L22.2255 4H22.7695V2.288H22.3695L22.4975 0.799999H24.2895V4H25.2015L25.0735 5.488H24.2895V10.512H25.2015ZM25.6013 10.576V5.424C25.6013 4.976 25.7399 4.61867 26.0173 4.352C26.2946 4.07467 26.6573 3.936 27.1053 3.936H28.0973C28.5453 3.936 28.9079 4.07467 29.1853 4.352C29.4626 4.61867 29.6013 4.976 29.6013 5.424V7.392H28.0813V5.504C28.0813 5.45067 28.0546 5.424 28.0013 5.424H27.2013C27.1479 5.424 27.1213 5.45067 27.1213 5.504V7.392H29.6013V8.88H27.1213V10.496C27.1213 10.5493 27.1479 10.576 27.2013 10.576H28.0013C28.0546 10.576 28.0813 10.5547 28.0813 10.512V9.632H29.6013V10.576C29.6013 11.024 29.4626 11.3867 29.1853 11.664C28.9079 11.9307 28.5453 12.064 28.0973 12.064H27.1053C26.6573 12.064 26.2946 11.9307 26.0173 11.664C25.7399 11.3867 25.6013 11.024 25.6013 10.576ZM1.68 28H0.16L1.024 18.288H0.736L0.896 16.8H3.824L4.816 28H3.296L3.12 26.08H1.856L1.68 28ZM1.984 24.592H2.992L2.496 19.024L1.984 24.592ZM5.21063 26.576V21.424C5.21063 20.976 5.34929 20.6187 5.62663 20.352C5.90396 20.0747 6.26663 19.936 6.71463 19.936H7.86663C8.31463 19.936 8.67729 20.0747 8.95463 20.352C9.23196 20.6187 9.37063 20.976 9.37063 21.424V23.536L7.85063 23.376V21.504C7.85063 21.4507 7.82396 21.424 7.77063 21.424H6.81063C6.75729 21.424 6.73063 21.4507 6.73063 21.504V26.496C6.73063 26.5493 6.75729 26.576 6.81063 26.576H7.77063C7.82396 26.576 7.85063 26.5547 7.85063 26.512V24.656H9.37063V26.576C9.37063 27.024 9.23196 27.3867 8.95463 27.664C8.67729 27.9307 8.31463 28.064 7.86663 28.064H6.71463C6.26663 28.064 5.90396 27.9307 5.62663 27.664C5.34929 27.3867 5.21063 27.024 5.21063 26.576ZM12.9515 26.512V28H12.0235C11.5755 28 11.2128 27.8667 10.9355 27.6C10.6582 27.3227 10.5195 26.96 10.5195 26.512V21.488H9.8475L9.9755 20H10.5195V18.288H10.1195L10.2475 16.8H12.0395V20H12.9515L12.8235 21.488H12.0395V26.512H12.9515ZM14.8694 17.872L15.0294 19.36H13.5094V17.872H14.8694ZM15.0294 20V28H13.5094V21.488H13.2694L13.4294 20H15.0294ZM18.3038 21.504C18.3038 21.4507 18.2771 21.424 18.2238 21.424H17.2638C17.2104 21.424 17.1838 21.4507 17.1838 21.504V26.496C17.1838 26.5493 17.2104 26.576 17.2638 26.576H18.2238C18.2771 26.576 18.3038 26.5547 18.3038 26.512V21.504ZM15.6638 26.576V21.424C15.6638 20.976 15.8024 20.6187 16.0798 20.352C16.3571 20.0747 16.7198 19.936 17.1678 19.936H18.3198C18.7678 19.936 19.1304 20.0747 19.4078 20.352C19.6851 20.6187 19.8238 20.976 19.8238 21.424V26.576C19.8238 27.024 19.6851 27.3867 19.4078 27.664C19.1304 27.9307 18.7678 28.064 18.3198 28.064H17.1678C16.7198 28.064 16.3571 27.9307 16.0798 27.664C15.8024 27.3867 15.6638 27.024 15.6638 26.576ZM20.6846 28V21.488H20.3006L20.4606 20H22.2046V20.624L22.6046 20H23.0366C23.5273 20 23.9166 20.1387 24.2046 20.416C24.5033 20.6933 24.6526 21.0507 24.6526 21.488V26.512H25.0526L24.8926 28H23.1326V21.568C23.1326 21.5147 23.106 21.488 23.0526 21.488H22.2046V28H20.6846ZM1.68 44H0.16L1.024 34.288H0.736L0.896 32.8H3.824L4.816 44H3.296L3.12 42.08H1.856L1.68 44ZM1.984 40.592H2.992L2.496 35.024L1.984 40.592ZM8.23275 42.512V44H7.30475C6.85675 44 6.49408 43.8667 6.21675 43.6C5.93942 43.3227 5.80075 42.96 5.80075 42.512V37.488H5.12875L5.25675 36H5.80075V34.288H5.40075L5.52875 32.8H7.32075V36H8.23275L8.10475 37.488H7.32075V42.512H8.23275ZM10.3125 32.8L10.3285 42.512H10.7285L10.8885 44H8.8085L8.7925 34.288H8.4725L8.6325 32.8H10.3125ZM12.8266 44C12.336 44 11.9413 43.8613 11.6426 43.584C11.3546 43.296 11.2106 42.9387 11.2106 42.512V37.488C11.2106 37.0507 11.3546 36.6933 11.6426 36.416C11.9413 36.1387 12.336 36 12.8266 36H12.8906C13.1786 36 13.4346 36.0693 13.6586 36.208V36H15.1786V42.512H15.4026L15.5626 44H13.6586V43.376L13.2586 44H12.8266ZM12.8106 37.488C12.7573 37.488 12.7306 37.5147 12.7306 37.568V42.432C12.7306 42.4853 12.7573 42.512 12.8106 42.512H13.6586V37.488H12.8106ZM15.9606 41.488L17.4806 41.648V42.432C17.4806 42.4853 17.5073 42.512 17.5606 42.512H18.2006C18.254 42.512 18.2806 42.4853 18.2806 42.432V40.944L16.8566 40.336C16.686 40.2613 16.494 40.144 16.2806 39.984C16.0673 39.824 15.9606 39.5627 15.9606 39.2V37.424C15.9606 36.976 16.0993 36.6187 16.3766 36.352C16.654 36.0747 17.0166 35.936 17.4646 35.936H18.2966C18.7446 35.936 19.1073 36.0747 19.3846 36.352C19.662 36.6187 19.8006 36.976 19.8006 37.424V38.448L18.2806 38.288V37.504C18.2806 37.4507 18.254 37.424 18.2006 37.424H17.5606C17.5073 37.424 17.4806 37.4507 17.4806 37.504V38.992L18.9046 39.6C19.0753 39.6747 19.2673 39.792 19.4806 39.952C19.694 40.112 19.8006 40.3733 19.8006 40.736V42.512C19.8006 42.96 19.662 43.3227 19.3846 43.6C19.1073 43.8667 18.7446 44 18.2966 44H17.4646C17.0166 44 16.654 43.8667 16.3766 43.6C16.0993 43.3227 15.9606 42.96 15.9606 42.512V41.488Z" fill="#151D2B"/>
</svg>
