<svg width="195" height="43" viewBox="0 0 195 43" fill="none" xmlns="http://www.w3.org/2000/svg">
<path d="M30.5135 18.9928C27.1789 21.3731 21.4239 20.3374 15.1231 25.5727C9.65973 30.1138 11.3313 35.9475 11.3313 35.9475L11.2341 36.258C8.44186 35.4841 5.97882 33.9737 4.09232 31.9624C1.65999 29.374 0.182861 25.9548 0.182861 22.2071C0.182861 21.4495 0.24256 20.7048 0.360254 19.9781C0.370488 19.9114 0.382427 19.8431 0.396073 19.7764C1.60712 12.8518 7.92332 7.57422 15.5342 7.57422C22.855 7.57422 28.9767 12.4567 30.5135 18.9928Z" fill="#6BFEAB"/>
<path d="M32.1006 17.1104C32.1111 17.1354 35.8573 26.125 27.9499 34.2507C23.7499 38.5665 16.6934 39.9372 11.7657 38.7556C7.32772 39.7799 3.74902 38.0014 3.74902 38.0014C3.82246 38.008 20.8379 39.5912 25.5521 27.2415C20.6023 35.0911 11.2844 36.2043 11.2528 36.208C11.2528 36.208 9.56679 30.1959 15.0754 25.5171C22.5199 19.1943 29.2074 21.744 32.1006 17.1104Z" fill="#072A32"/>
<path fill-rule="evenodd" clip-rule="evenodd" d="M15.7289 7.00059C17.0419 7.01819 18.3493 7.20076 19.6101 7.53403C19.9227 7.62685 20.2394 7.70533 20.5447 7.81859L21.0055 7.97829L21.458 8.15878C21.762 8.27255 22.0512 8.42048 22.347 8.551C22.493 8.62053 22.6351 8.69818 22.7785 8.77223C22.921 8.84814 23.0662 8.91883 23.2039 9.00344C24.323 9.64368 25.3623 10.4101 26.2683 11.3C28.0866 13.0703 29.4231 15.2847 30.0517 17.6535C29.7658 17.0045 29.4372 16.3775 29.0709 15.7763C28.7794 15.7195 28.4954 15.6503 28.204 15.615L27.6772 15.5498L27.4158 15.5183L27.1511 15.5086C26.7987 15.4982 26.4526 15.4692 26.1023 15.4942L25.5815 15.5089C25.4096 15.5212 25.2378 15.5436 25.0667 15.5603C25.8977 16.627 26.6056 17.7756 27.1435 18.9913C26.3148 17.7823 25.3774 16.6629 24.3386 15.6554C23.2144 15.8276 22.1177 16.1259 21.0658 16.5267C20.0543 16.9116 19.085 17.3868 18.1614 17.9354C19.0337 18.8667 19.853 19.8417 20.6065 20.8623C19.5795 20.0022 18.5476 19.159 17.5014 18.3442C16.3411 19.0958 15.2596 19.9645 14.2691 20.9196C13.2537 21.9211 12.334 23.0175 11.5438 24.1955C12.0038 24.7752 12.472 25.3521 12.9448 25.9275C12.3771 25.5006 11.8241 25.0538 11.2855 24.5906C10.6898 25.5271 10.1755 26.5126 9.76278 27.5429C9.32426 28.6362 9.00299 29.7785 8.83308 30.9504L8.83442 30.9517C9.19504 31.3168 9.57587 31.6639 9.96296 32.0079C9.56383 31.7678 9.17564 31.5082 8.7968 31.2351C8.78855 31.3024 8.77833 31.3693 8.77111 31.4368C8.75374 31.6045 8.73059 31.7733 8.71788 31.942L8.70276 32.4494C8.70121 32.6188 8.67938 32.791 8.69537 32.9598L8.71703 33.4713L8.7266 33.7292L8.75901 33.9839L8.82535 34.4972C8.86473 34.8084 8.94603 35.1112 9.00638 35.4244C9.32005 35.6072 9.63993 35.7814 9.96682 35.9444C7.58233 35.175 5.40722 33.7244 3.71282 31.841C2.87226 30.8933 2.13834 29.8424 1.56792 28.7057C1.42967 28.4198 1.28314 28.1364 1.16655 27.8405C1.10618 27.6936 1.04005 27.5482 0.984673 27.3992L0.821437 26.9507C0.709662 26.6523 0.627537 26.3447 0.531409 26.0408L0.414188 25.5778C0.373433 25.4237 0.337937 25.2683 0.309563 25.1117L0.216862 24.6425L0.145824 24.1696C0.092517 23.8548 0.072717 23.5363 0.0390153 23.2186C-0.00122525 22.5819 -0.0172156 21.9414 0.0245727 21.3028C0.0864849 20.0238 0.336696 18.7543 0.734109 17.5299C1.12586 16.3024 1.70671 15.1348 2.40577 14.0434C2.98925 13.1378 3.68512 12.3047 4.45209 11.5418C4.49333 11.4985 4.53523 11.4556 4.57854 11.4142L4.57954 11.4132L4.58123 11.4119C4.59463 11.399 4.60846 11.3864 4.62221 11.3736C4.72401 11.2751 4.8265 11.1772 4.93071 11.0811C6.85623 9.31852 9.25738 8.04722 11.8186 7.43814C13.0972 7.12516 14.4169 6.98987 15.7289 7.00059ZM3.20263 24.635C2.9992 25.8407 2.96257 27.0747 3.14552 28.2928C3.25232 28.9952 3.44074 29.6878 3.70678 30.3583C3.91606 30.6879 4.13709 31.0112 4.3713 31.3261C5.58109 32.956 7.15583 34.3384 8.96474 35.3997C8.90663 35.2836 8.84848 35.1674 8.79244 35.0492C8.72004 34.888 8.62743 34.7309 8.57395 34.5624L8.39761 34.058L8.31062 33.8036L8.24596 33.5441C8.15792 33.1974 8.06972 32.8467 8.03034 32.4901L7.95711 31.9542C7.94163 31.7751 7.93653 31.5955 7.92604 31.4152C7.91263 31.1301 7.91327 30.8445 7.92084 30.559C7.76073 30.4269 7.60119 30.294 7.44607 30.1559C6.65919 29.4669 5.9381 28.7026 5.27347 27.889C4.4697 26.8887 3.76737 25.7977 3.20263 24.635ZM5.77325 18.3962C5.6326 18.6063 5.49454 18.8183 5.36231 19.0334C4.69404 20.1292 4.14278 21.2939 3.74003 22.5055C4.20124 24.2246 4.97489 25.8799 5.96352 27.4151C6.50109 28.2626 7.12008 29.0643 7.78783 29.8324C7.83942 29.8932 7.89509 29.9511 7.94771 30.0111C8.01804 29.0354 8.20164 28.0647 8.48091 27.1227C8.85959 25.8551 9.40614 24.6413 10.0842 23.5004C8.82781 22.3047 7.66378 21.008 6.61546 19.6105C6.3233 19.2156 6.04202 18.8109 5.77325 18.3962ZM1.7854 19.7827C1.67776 20.3198 1.58208 20.8611 1.53702 21.4085C1.42541 22.5611 1.46384 23.7295 1.64098 24.8806C1.71561 25.3896 1.82455 25.8936 1.95972 26.3917C1.87821 25.3323 1.94344 24.2592 2.1295 23.2134C2.18023 22.928 2.24328 22.645 2.31138 22.3633C2.30863 22.3539 2.3054 22.3447 2.30265 22.3353C2.05502 21.5066 1.87276 20.6524 1.7854 19.7827ZM10.2863 13.6169C9.6321 14.1136 9.00973 14.651 8.42197 15.2229C7.834 15.7948 7.28392 16.4027 6.77248 17.0389C6.7572 17.0578 6.74275 17.0774 6.72747 17.0963C7.04045 17.6995 7.38632 18.296 7.74349 18.884C8.5827 20.2399 9.5134 21.5524 10.4947 22.8432C11.2302 21.7214 12.0933 20.6777 13.053 19.7352C13.9918 18.8289 15.0272 18.0103 16.1392 17.3082C15.2995 16.6857 14.448 16.0849 13.5784 15.5147C12.5139 14.817 11.4233 14.1616 10.3053 13.6025C10.2991 13.6073 10.2926 13.612 10.2863 13.6169ZM4.09202 14.9812C3.89152 15.4133 3.72696 15.8639 3.60366 16.3287C3.31321 17.3793 3.2148 18.4849 3.26863 19.5973C3.47653 19.1378 3.70267 18.6862 3.94961 18.2463C4.22458 17.7547 4.53033 17.2809 4.85362 16.819C4.66205 16.4436 4.48418 16.0575 4.3258 15.656C4.2369 15.4386 4.16046 15.2126 4.09202 14.9812ZM15.7704 10.7023C14.5724 11.091 13.4199 11.6136 12.3335 12.2433C12.1286 12.3625 11.9266 12.4863 11.7263 12.6128C12.0009 12.7787 12.272 12.9487 12.5373 13.1258C13.1739 13.5447 13.786 13.9923 14.3791 14.4584C15.3054 15.1898 16.1892 15.9658 17.0291 16.7805C18.1675 16.149 19.3759 15.6397 20.6356 15.2825C21.5289 15.0311 22.4473 14.8572 23.3716 14.7781C23.2595 14.6826 23.1486 14.5856 23.0342 14.4928C21.4724 13.2068 19.7351 12.1433 17.8779 11.399C17.1891 11.1208 16.4844 10.8881 15.7704 10.7023ZM21.8353 10.0837C20.6401 9.9135 19.4305 9.94038 18.2453 10.1161C18.3079 10.1449 18.3706 10.1729 18.4327 10.2024C20.3823 11.1283 22.1317 12.3986 23.609 13.896C23.875 14.1668 24.13 14.4472 24.3794 14.732C24.5999 14.7302 24.8201 14.7321 25.0403 14.742C25.2253 14.7522 25.4096 14.7569 25.5934 14.7719L26.1434 14.8431C26.5093 14.881 26.8692 14.9673 27.225 15.0527L27.4913 15.1156L27.7524 15.2003L28.2702 15.3718C28.4433 15.4237 28.6044 15.5138 28.7698 15.5842C28.8565 15.6232 28.941 15.6638 29.0264 15.7037C28.1331 14.2551 27.0128 12.9625 25.6999 11.9023C25.0999 11.4057 24.4582 10.9635 23.7891 10.5702C23.1527 10.3432 22.4984 10.1792 21.8353 10.0837ZM6.92211 12.4217C6.61963 12.3884 6.33125 12.3949 6.1182 12.4498C5.97461 12.4867 5.87519 12.5336 5.79643 12.595C5.76015 12.63 5.72488 12.666 5.68894 12.7013C5.60124 12.824 5.53512 13.0309 5.521 13.2945C5.50501 13.5579 5.5285 13.8604 5.59591 14.1717C5.66056 14.4827 5.74982 14.8003 5.86108 15.12C5.89151 15.2083 5.92598 15.2963 5.95882 15.3844C6.3552 14.9189 6.77135 14.4698 7.20643 14.0389C7.64048 13.6215 8.09391 13.2229 8.56286 12.8426C8.33245 12.7591 8.10203 12.6812 7.8718 12.6176C7.5485 12.5277 7.22563 12.4508 6.92211 12.4217ZM12.0983 10.2343C10.7589 10.2515 9.42655 10.4934 8.23034 10.9981C8.27351 11.0105 8.31718 11.0223 8.35982 11.0352C8.96945 11.2251 9.54333 11.4584 10.0934 11.7222C10.5569 11.4157 11.032 11.1258 11.5238 10.8636C11.9394 10.6423 12.3647 10.437 12.7974 10.2475C12.5641 10.237 12.331 10.2321 12.0983 10.2343ZM15.7358 8.47361C14.9239 8.50125 14.1129 8.58031 13.3165 8.72674C14.0135 8.80013 14.7019 8.92256 15.3747 9.09262C15.5469 9.13636 15.7179 9.18408 15.8882 9.23351C16.1316 9.1799 16.3761 9.13107 16.6222 9.08951C17.6445 8.91676 18.6921 8.85029 19.7289 8.91296C19.5814 8.87627 19.4332 8.84123 19.285 8.8084C18.7003 8.68976 18.112 8.58796 17.5178 8.5402C16.9256 8.47854 16.3295 8.46607 15.7358 8.47361Z" fill="#072A32"/>
<path d="M32.1006 17.1104C29.2074 21.7441 22.5199 19.1944 15.0753 25.5172C9.5667 30.1959 11.2527 36.2081 11.2527 36.2081C11.2527 36.2081 20.5938 35.1046 25.5519 27.2415C20.8379 39.5913 3.82246 38.008 3.74902 38.0015C3.74902 38.0015 7.32768 39.7799 11.7656 38.7557C16.6934 39.9373 23.7497 38.5665 27.9497 34.2507C35.8682 26.1137 32.1006 17.1104 32.1006 17.1104Z" fill="#072A32"/>
<path d="M52.548 23.63C51.442 23.63 50.42 23.56 49.482 23.42C48.544 23.28 47.676 23.077 46.878 22.811C46.094 22.545 45.387 22.223 44.757 21.845C44.141 21.467 43.595 21.04 43.119 20.564C42.643 20.088 42.244 19.57 41.922 19.01C41.614 18.436 41.383 17.827 41.229 17.183C41.075 16.539 40.998 15.86 40.998 15.146C40.998 13.984 41.187 12.941 41.565 12.017C41.943 11.093 42.475 10.295 43.161 9.623C43.861 8.951 44.687 8.391 45.639 7.943C46.605 7.495 47.669 7.166 48.831 6.956C49.993 6.732 51.232 6.62 52.548 6.62C54.872 6.62 56.846 6.9 58.47 7.46C60.094 8.02 61.375 8.825 62.313 9.875C63.265 10.925 63.86 12.199 64.098 13.697L55.173 15.146C55.173 14.824 55.103 14.551 54.963 14.327C54.823 14.089 54.634 13.9 54.396 13.76C54.158 13.62 53.878 13.515 53.556 13.445C53.248 13.375 52.912 13.34 52.548 13.34C52.044 13.34 51.596 13.41 51.204 13.55C50.812 13.676 50.497 13.872 50.259 14.138C50.035 14.39 49.923 14.712 49.923 15.104C49.923 15.342 49.965 15.559 50.049 15.755C50.133 15.951 50.252 16.126 50.406 16.28C50.56 16.42 50.742 16.539 50.952 16.637C51.176 16.721 51.421 16.791 51.687 16.847C51.953 16.889 52.24 16.91 52.548 16.91C53.29 16.91 53.913 16.763 54.417 16.469C54.921 16.161 55.173 15.72 55.173 15.146L64.098 16.049C63.944 17.085 63.601 18.058 63.069 18.968C62.551 19.878 61.823 20.683 60.885 21.383C59.961 22.083 58.806 22.629 57.42 23.021C56.048 23.427 54.424 23.63 52.548 23.63ZM76.2165 16.784C76.2165 16.798 76.2165 16.812 76.2165 16.826C76.2305 16.826 76.2445 16.826 76.2585 16.826H84.4485V23H67.5015C67.5015 22.132 67.5015 21.264 67.5015 20.396C67.5015 19.528 67.5015 18.66 67.5015 17.792C67.5015 16.91 67.5015 16.035 67.5015 15.167C67.5015 14.299 67.5015 13.431 67.5015 12.563C67.5015 11.681 67.5015 10.799 67.5015 9.917C67.5015 9.021 67.5015 8.132 67.5015 7.25H76.2165C76.2165 8.048 76.2165 8.846 76.2165 9.644C76.2165 10.428 76.2165 11.219 76.2165 12.017C76.2165 12.815 76.2165 13.613 76.2165 14.411C76.2165 15.195 76.2165 15.986 76.2165 16.784ZM87.8682 23C87.8682 21.992 87.8682 20.984 87.8682 19.976C87.8682 18.968 87.8682 17.96 87.8682 16.952C87.8682 15.944 87.8682 14.936 87.8682 13.928C87.8682 12.92 87.8682 11.912 87.8682 10.904C87.8682 10.288 87.8682 9.679 87.8682 9.077C87.8682 8.461 87.8682 7.852 87.8682 7.25H96.5832C96.5832 8.608 96.5832 9.966 96.5832 11.324C96.5832 12.668 96.5832 14.019 96.5832 15.377C96.5832 16.217 96.5832 17.064 96.5832 17.918C96.5832 18.758 96.5832 19.605 96.5832 20.459C96.5832 21.299 96.5832 22.146 96.5832 23H87.8682ZM125.46 7.25C125.46 8.3 125.46 9.35 125.46 10.4C125.46 11.45 125.46 12.5 125.46 13.55C125.46 14.6 125.46 15.65 125.46 16.7C125.46 17.75 125.46 18.8 125.46 19.85C125.46 20.9 125.46 21.95 125.46 23H117.375C117.375 21.544 117.375 20.088 117.375 18.632C117.375 17.176 117.375 15.72 117.375 14.264C117.375 14.25 117.368 14.243 117.354 14.243C117.354 14.243 117.347 14.243 117.333 14.243C117.333 14.243 117.333 14.25 117.333 14.264L115.275 23H109.92C109.57 21.544 109.227 20.095 108.891 18.653C108.555 17.211 108.212 15.769 107.862 14.327C107.862 14.313 107.855 14.306 107.841 14.306C107.841 14.306 107.834 14.306 107.82 14.306C107.82 14.306 107.82 14.313 107.82 14.327C107.82 15.769 107.82 17.211 107.82 18.653C107.82 20.095 107.82 21.544 107.82 23H100.155C100.155 21.95 100.155 20.9 100.155 19.85C100.155 18.786 100.155 17.729 100.155 16.679C100.155 15.615 100.155 14.558 100.155 13.508C100.155 12.444 100.155 11.387 100.155 10.337C100.155 9.819 100.155 9.308 100.155 8.804C100.155 8.286 100.155 7.768 100.155 7.25H111.348C111.558 8.118 111.761 8.986 111.957 9.854C112.153 10.708 112.349 11.569 112.545 12.437C112.755 13.305 112.958 14.173 113.154 15.041C113.154 15.055 113.154 15.069 113.154 15.083C113.168 15.083 113.175 15.083 113.175 15.083C113.189 15.069 113.196 15.055 113.196 15.041L114.876 7.25H125.46ZM146.105 7.25C146.357 8.118 146.602 8.993 146.84 9.875C147.092 10.743 147.337 11.618 147.575 12.5C147.827 13.368 148.079 14.243 148.331 15.125C148.583 15.993 148.828 16.868 149.066 17.75C149.318 18.618 149.563 19.493 149.801 20.375C150.053 21.243 150.305 22.118 150.557 23H141.191L140.834 20.942C140.778 20.942 140.729 20.942 140.687 20.942C140.645 20.942 140.596 20.942 140.54 20.942H138.23C138.188 20.942 138.146 20.942 138.104 20.942C138.062 20.942 138.02 20.942 137.978 20.942L137.621 23H128.654C128.906 22.118 129.151 21.243 129.389 20.375C129.641 19.493 129.886 18.618 130.124 17.75C130.376 16.868 130.621 15.993 130.859 15.125C131.111 14.243 131.356 13.368 131.594 12.5C131.846 11.618 132.091 10.743 132.329 9.875C132.581 8.993 132.826 8.118 133.064 7.25H146.105ZM138.23 19.451C138.23 19.465 138.23 19.472 138.23 19.472C138.23 19.472 138.237 19.472 138.251 19.472H140.561C140.575 19.472 140.582 19.472 140.582 19.472C140.582 19.458 140.582 19.451 140.582 19.451C140.582 19.451 140.554 19.283 140.498 18.947C140.442 18.597 140.365 18.163 140.267 17.645C140.183 17.113 140.092 16.553 139.994 15.965C139.896 15.363 139.805 14.796 139.721 14.264C139.637 13.732 139.56 13.298 139.49 12.962C139.434 12.626 139.406 12.458 139.406 12.458C139.406 12.458 139.399 12.458 139.385 12.458C139.385 12.458 139.357 12.626 139.301 12.962C139.245 13.298 139.168 13.732 139.07 14.264C138.986 14.796 138.895 15.363 138.797 15.965C138.699 16.553 138.608 17.113 138.524 17.645C138.44 18.163 138.37 18.597 138.314 18.947C138.258 19.283 138.23 19.451 138.23 19.451ZM170.634 7.25V13.634H165.573C165.573 13.634 165.566 13.641 165.552 13.655C165.552 13.655 165.545 13.655 165.531 13.655C165.531 13.655 165.531 13.662 165.531 13.676C165.531 14.292 165.531 14.915 165.531 15.545C165.531 16.161 165.531 16.784 165.531 17.414C165.531 18.03 165.531 18.653 165.531 19.283C165.531 19.899 165.531 20.522 165.531 21.152C165.531 21.768 165.531 22.384 165.531 23H156.816C156.816 21.964 156.816 20.928 156.816 19.892C156.816 18.856 156.816 17.82 156.816 16.784C156.816 15.748 156.816 14.712 156.816 13.676C156.816 13.662 156.809 13.655 156.795 13.655C156.795 13.641 156.788 13.634 156.774 13.634H151.713V7.25H170.634ZM191.713 12.542H182.578C182.564 12.542 182.557 12.542 182.557 12.542V13.697C182.557 13.711 182.557 13.725 182.557 13.739C182.571 13.739 182.578 13.739 182.578 13.739H191.398V16.7H182.578C182.578 16.7 182.571 16.7 182.557 16.7C182.557 16.7 182.557 16.707 182.557 16.721C182.557 16.721 182.557 16.728 182.557 16.742V17.918C182.571 17.918 182.578 17.918 182.578 17.918H191.839V23H174.052C174.052 22.174 174.052 21.348 174.052 20.522C174.052 19.682 174.052 18.849 174.052 18.023C174.052 17.197 174.052 16.371 174.052 15.545C174.052 14.705 174.052 13.872 174.052 13.046C174.052 12.206 174.052 11.373 174.052 10.547C174.052 10.001 174.052 9.455 174.052 8.909C174.052 8.349 174.052 7.796 174.052 7.25H191.713V12.542ZM50.9007 30.25C51.0567 30.7873 51.2083 31.329 51.3557 31.875C51.5117 32.4123 51.6633 32.954 51.8107 33.5C51.9667 34.0373 52.1227 34.579 52.2787 35.125C52.4347 35.6623 52.5863 36.204 52.7337 36.75C52.8897 37.2873 53.0413 37.829 53.1887 38.375C53.3447 38.9123 53.5007 39.454 53.6567 40H47.8587L47.6377 38.726C47.603 38.726 47.5727 38.726 47.5467 38.726C47.5207 38.726 47.4903 38.726 47.4557 38.726H46.0257C45.9997 38.726 45.9737 38.726 45.9477 38.726C45.9217 38.726 45.8957 38.726 45.8697 38.726L45.6487 40H40.0977C40.2537 39.454 40.4053 38.9123 40.5527 38.375C40.7087 37.829 40.8603 37.2873 41.0077 36.75C41.1637 36.204 41.3153 35.6623 41.4627 35.125C41.6187 34.579 41.7703 34.0373 41.9177 33.5C42.0737 32.954 42.2253 32.4123 42.3727 31.875C42.5287 31.329 42.6803 30.7873 42.8277 30.25H50.9007ZM46.0257 37.803C46.0257 37.8117 46.0257 37.816 46.0257 37.816C46.0257 37.816 46.03 37.816 46.0387 37.816H47.4687C47.4773 37.816 47.4817 37.816 47.4817 37.816C47.4817 37.8073 47.4817 37.803 47.4817 37.803C47.4817 37.803 47.4643 37.699 47.4297 37.491C47.395 37.2743 47.3473 37.0057 47.2867 36.685C47.2347 36.3557 47.1783 36.009 47.1177 35.645C47.057 35.2723 47.0007 34.9213 46.9487 34.592C46.8967 34.2627 46.849 33.994 46.8057 33.786C46.771 33.578 46.7537 33.474 46.7537 33.474C46.7537 33.474 46.7493 33.474 46.7407 33.474C46.7407 33.474 46.7233 33.578 46.6887 33.786C46.654 33.994 46.6063 34.2627 46.5457 34.592C46.4937 34.9213 46.4373 35.2723 46.3767 35.645C46.316 36.009 46.2597 36.3557 46.2077 36.685C46.1557 37.0057 46.1123 37.2743 46.0777 37.491C46.043 37.699 46.0257 37.803 46.0257 37.803ZM61.6136 40.39C60.9289 40.39 60.2963 40.3467 59.7156 40.26C59.1349 40.1733 58.5976 40.0477 58.1036 39.883C57.6183 39.7183 57.1806 39.519 56.7906 39.285C56.4093 39.051 56.0713 38.7867 55.7766 38.492C55.4819 38.1973 55.2349 37.8767 55.0356 37.53C54.8449 37.1747 54.7019 36.7977 54.6066 36.399C54.5113 36.0003 54.4636 35.58 54.4636 35.138C54.4636 34.4187 54.5806 33.773 54.8146 33.201C55.0486 32.629 55.3779 32.135 55.8026 31.719C56.2359 31.303 56.7473 30.9563 57.3366 30.679C57.9346 30.4017 58.5933 30.198 59.3126 30.068C60.0319 29.9293 60.7989 29.86 61.6136 29.86C63.0523 29.86 64.2743 30.0333 65.2796 30.38C66.2849 30.7267 67.0779 31.225 67.6586 31.875C68.2479 32.525 68.6163 33.3137 68.7636 34.241L63.2386 35.138C63.2386 34.9387 63.1953 34.7697 63.1086 34.631C63.0219 34.4837 62.9049 34.3667 62.7576 34.28C62.6103 34.1933 62.4369 34.1283 62.2376 34.085C62.0469 34.0417 61.8389 34.02 61.6136 34.02C61.3016 34.02 61.0243 34.0633 60.7816 34.15C60.5389 34.228 60.3439 34.3493 60.1966 34.514C60.0579 34.67 59.9886 34.8693 59.9886 35.112C59.9886 35.2593 60.0146 35.3937 60.0666 35.515C60.1186 35.6363 60.1923 35.7447 60.2876 35.84C60.3829 35.9267 60.4956 36.0003 60.6256 36.061C60.7643 36.113 60.9159 36.1563 61.0806 36.191C61.2453 36.217 61.4229 36.23 61.6136 36.23C62.0729 36.23 62.4586 36.139 62.7706 35.957C63.0826 35.7663 63.2386 35.4933 63.2386 35.138L68.7636 35.697C68.6683 36.3383 68.4559 36.9407 68.1266 37.504C67.8059 38.0673 67.3553 38.5657 66.7746 38.999C66.2026 39.4323 65.4876 39.7703 64.6296 40.013C63.7803 40.2643 62.7749 40.39 61.6136 40.39ZM82.1025 30.25V34.202H78.9695C78.9695 34.202 78.9652 34.2063 78.9565 34.215C78.9565 34.215 78.9522 34.215 78.9435 34.215C78.9435 34.215 78.9435 34.2193 78.9435 34.228C78.9435 34.6093 78.9435 34.995 78.9435 35.385C78.9435 35.7663 78.9435 36.152 78.9435 36.542C78.9435 36.9233 78.9435 37.309 78.9435 37.699C78.9435 38.0803 78.9435 38.466 78.9435 38.856C78.9435 39.2373 78.9435 39.6187 78.9435 40H73.5485C73.5485 39.3587 73.5485 38.7173 73.5485 38.076C73.5485 37.4347 73.5485 36.7933 73.5485 36.152C73.5485 35.5107 73.5485 34.8693 73.5485 34.228C73.5485 34.2193 73.5442 34.215 73.5355 34.215C73.5355 34.2063 73.5312 34.202 73.5225 34.202H70.3895V30.25H82.1025ZM83.8284 40C83.8284 39.376 83.8284 38.752 83.8284 38.128C83.8284 37.504 83.8284 36.88 83.8284 36.256C83.8284 35.632 83.8284 35.008 83.8284 34.384C83.8284 33.76 83.8284 33.136 83.8284 32.512C83.8284 32.1307 83.8284 31.7537 83.8284 31.381C83.8284 30.9997 83.8284 30.6227 83.8284 30.25H89.2234C89.2234 31.0907 89.2234 31.9313 89.2234 32.772C89.2234 33.604 89.2234 34.4403 89.2234 35.281C89.2234 35.801 89.2234 36.3253 89.2234 36.854C89.2234 37.374 89.2234 37.8983 89.2234 38.427C89.2234 38.947 89.2234 39.4713 89.2234 40H83.8284ZM98.0644 29.86C99.659 29.86 100.985 30.0853 102.042 30.536C103.1 30.9867 103.893 31.6063 104.421 32.395C104.95 33.1837 105.214 34.0893 105.214 35.112C105.214 35.6667 105.132 36.204 104.967 36.724C104.803 37.2353 104.543 37.7163 104.187 38.167C103.832 38.609 103.373 38.999 102.809 39.337C102.246 39.6663 101.57 39.922 100.781 40.104C100.001 40.2947 99.0957 40.39 98.0644 40.39C97.3277 40.39 96.6517 40.338 96.0364 40.234C95.4297 40.1387 94.8794 40.0043 94.3854 39.831C93.8914 39.649 93.4537 39.4323 93.0724 39.181C92.6997 38.9297 92.3747 38.6523 92.0974 38.349C91.8287 38.037 91.6034 37.7077 91.4214 37.361C91.248 37.0143 91.118 36.6503 91.0314 36.269C90.9534 35.8877 90.9144 35.502 90.9144 35.112C90.9144 34.6007 90.9794 34.1153 91.1094 33.656C91.248 33.1967 91.4474 32.772 91.7074 32.382C91.976 31.992 92.3054 31.6453 92.6954 31.342C93.094 31.03 93.5577 30.7657 94.0864 30.549C94.615 30.3237 95.2087 30.1547 95.8674 30.042C96.5347 29.9207 97.267 29.86 98.0644 29.86ZM98.0774 33.994C97.774 33.994 97.514 34.0287 97.2974 34.098C97.0894 34.1587 96.9204 34.2453 96.7904 34.358C96.669 34.462 96.578 34.5833 96.5174 34.722C96.4654 34.852 96.4394 34.9863 96.4394 35.125C96.4394 35.307 96.4914 35.4847 96.5954 35.658C96.6994 35.8313 96.8727 35.9743 97.1154 36.087C97.358 36.1997 97.6787 36.256 98.0774 36.256C98.3114 36.256 98.515 36.2343 98.6884 36.191C98.8704 36.1477 99.022 36.0913 99.1434 36.022C99.2734 35.944 99.3774 35.8573 99.4554 35.762C99.542 35.658 99.6027 35.554 99.6374 35.45C99.672 35.3373 99.6894 35.2247 99.6894 35.112C99.6894 34.982 99.659 34.852 99.5984 34.722C99.5464 34.592 99.4597 34.475 99.3384 34.371C99.217 34.2583 99.0524 34.1673 98.8444 34.098C98.6364 34.0287 98.3807 33.994 98.0774 33.994ZM114.589 30.25H119.594C119.594 30.5707 119.594 30.8957 119.594 31.225C119.594 31.5457 119.594 31.8707 119.594 32.2C119.594 32.5207 119.594 32.8457 119.594 33.175C119.594 33.4957 119.594 33.8207 119.594 34.15C119.594 34.4707 119.594 34.7957 119.594 35.125C119.594 35.9397 119.594 36.7543 119.594 37.569C119.594 38.375 119.594 39.1853 119.594 40H113.575L111.937 35.32C111.937 35.3113 111.933 35.307 111.924 35.307C111.924 35.307 111.92 35.307 111.911 35.307C111.911 35.307 111.911 35.3113 111.911 35.32C111.911 36.0827 111.911 36.8627 111.911 37.66C111.911 38.4573 111.911 39.2373 111.911 40H106.906C106.906 39.35 106.906 38.7 106.906 38.05C106.906 37.4 106.906 36.75 106.906 36.1C106.906 35.45 106.906 34.8 106.906 34.15C106.906 33.5 106.906 32.85 106.906 32.2C106.906 31.55 106.906 30.9 106.906 30.25H112.73L114.563 35.645C114.572 35.645 114.576 35.645 114.576 35.645C114.585 35.645 114.589 35.645 114.589 35.645C114.589 35.6363 114.589 35.632 114.589 35.632V30.25ZM135.881 30.25C136.037 30.7873 136.188 31.329 136.336 31.875C136.492 32.4123 136.643 32.954 136.791 33.5C136.947 34.0373 137.103 34.579 137.259 35.125C137.415 35.6623 137.566 36.204 137.714 36.75C137.87 37.2873 138.021 37.829 138.169 38.375C138.325 38.9123 138.481 39.454 138.637 40H132.839L132.618 38.726C132.583 38.726 132.553 38.726 132.527 38.726C132.501 38.726 132.47 38.726 132.436 38.726H131.006C130.98 38.726 130.954 38.726 130.928 38.726C130.902 38.726 130.876 38.726 130.85 38.726L130.629 40H125.078C125.234 39.454 125.385 38.9123 125.533 38.375C125.689 37.829 125.84 37.2873 125.988 36.75C126.144 36.204 126.295 35.6623 126.443 35.125C126.599 34.579 126.75 34.0373 126.898 33.5C127.054 32.954 127.205 32.4123 127.353 31.875C127.509 31.329 127.66 30.7873 127.808 30.25H135.881ZM131.006 37.803C131.006 37.8117 131.006 37.816 131.006 37.816C131.006 37.816 131.01 37.816 131.019 37.816H132.449C132.457 37.816 132.462 37.816 132.462 37.816C132.462 37.8073 132.462 37.803 132.462 37.803C132.462 37.803 132.444 37.699 132.41 37.491C132.375 37.2743 132.327 37.0057 132.267 36.685C132.215 36.3557 132.158 36.009 132.098 35.645C132.037 35.2723 131.981 34.9213 131.929 34.592C131.877 34.2627 131.829 33.994 131.786 33.786C131.751 33.578 131.734 33.474 131.734 33.474C131.734 33.474 131.729 33.474 131.721 33.474C131.721 33.474 131.703 33.578 131.669 33.786C131.634 33.994 131.586 34.2627 131.526 34.592C131.474 34.9213 131.417 35.2723 131.357 35.645C131.296 36.009 131.24 36.3557 131.188 36.685C131.136 37.0057 131.092 37.2743 131.058 37.491C131.023 37.699 131.006 37.803 131.006 37.803ZM150.675 30.25V34.202H147.542C147.542 34.202 147.538 34.2063 147.529 34.215C147.529 34.215 147.525 34.215 147.516 34.215C147.516 34.215 147.516 34.2193 147.516 34.228C147.516 34.6093 147.516 34.995 147.516 35.385C147.516 35.7663 147.516 36.152 147.516 36.542C147.516 36.9233 147.516 37.309 147.516 37.699C147.516 38.0803 147.516 38.466 147.516 38.856C147.516 39.2373 147.516 39.6187 147.516 40H142.121C142.121 39.3587 142.121 38.7173 142.121 38.076C142.121 37.4347 142.121 36.7933 142.121 36.152C142.121 35.5107 142.121 34.8693 142.121 34.228C142.121 34.2193 142.117 34.215 142.108 34.215C142.108 34.2063 142.104 34.202 142.095 34.202H138.962V30.25H150.675ZM157.796 36.152C157.796 36.1607 157.796 36.1693 157.796 36.178C157.804 36.178 157.813 36.178 157.822 36.178H162.892V40H152.401C152.401 39.4627 152.401 38.9253 152.401 38.388C152.401 37.8507 152.401 37.3133 152.401 36.776C152.401 36.23 152.401 35.6883 152.401 35.151C152.401 34.6137 152.401 34.0763 152.401 33.539C152.401 32.993 152.401 32.447 152.401 31.901C152.401 31.3463 152.401 30.796 152.401 30.25H157.796C157.796 30.744 157.796 31.238 157.796 31.732C157.796 32.2173 157.796 32.707 157.796 33.201C157.796 33.695 157.796 34.189 157.796 34.683C157.796 35.1683 157.796 35.658 157.796 36.152ZM175.226 30.25C175.382 30.7873 175.534 31.329 175.681 31.875C175.837 32.4123 175.989 32.954 176.136 33.5C176.292 34.0373 176.448 34.579 176.604 35.125C176.76 35.6623 176.912 36.204 177.059 36.75C177.215 37.2873 177.367 37.829 177.514 38.375C177.67 38.9123 177.826 39.454 177.982 40H172.184L171.963 38.726C171.928 38.726 171.898 38.726 171.872 38.726C171.846 38.726 171.816 38.726 171.781 38.726H170.351C170.325 38.726 170.299 38.726 170.273 38.726C170.247 38.726 170.221 38.726 170.195 38.726L169.974 40H164.423C164.579 39.454 164.731 38.9123 164.878 38.375C165.034 37.829 165.186 37.2873 165.333 36.75C165.489 36.204 165.641 35.6623 165.788 35.125C165.944 34.579 166.096 34.0373 166.243 33.5C166.399 32.954 166.551 32.4123 166.698 31.875C166.854 31.329 167.006 30.7873 167.153 30.25H175.226ZM170.351 37.803C170.351 37.8117 170.351 37.816 170.351 37.816C170.351 37.816 170.355 37.816 170.364 37.816H171.794C171.803 37.816 171.807 37.816 171.807 37.816C171.807 37.8073 171.807 37.803 171.807 37.803C171.807 37.803 171.79 37.699 171.755 37.491C171.72 37.2743 171.673 37.0057 171.612 36.685C171.56 36.3557 171.504 36.009 171.443 35.645C171.382 35.2723 171.326 34.9213 171.274 34.592C171.222 34.2627 171.174 33.994 171.131 33.786C171.096 33.578 171.079 33.474 171.079 33.474C171.079 33.474 171.075 33.474 171.066 33.474C171.066 33.474 171.049 33.578 171.014 33.786C170.979 33.994 170.932 34.2627 170.871 34.592C170.819 34.9213 170.763 35.2723 170.702 35.645C170.641 36.009 170.585 36.3557 170.533 36.685C170.481 37.0057 170.438 37.2743 170.403 37.491C170.368 37.699 170.351 37.803 170.351 37.803ZM185.959 34.124C187.259 34.124 188.346 34.1803 189.222 34.293C190.097 34.4057 190.795 34.5833 191.315 34.826C191.835 35.06 192.207 35.3633 192.433 35.736C192.658 36.1 192.771 36.5333 192.771 37.036C192.771 37.582 192.593 38.0673 192.238 38.492C191.891 38.908 191.401 39.259 190.769 39.545C190.145 39.8223 189.417 40.0303 188.585 40.169C187.761 40.3163 186.873 40.39 185.92 40.39C184.862 40.39 183.9 40.312 183.034 40.156C182.167 40 181.43 39.7617 180.824 39.441C180.217 39.1117 179.762 38.6913 179.459 38.18C179.164 37.6687 179.047 37.0577 179.108 36.347L184.659 35.97C184.589 36.23 184.607 36.4467 184.711 36.62C184.823 36.7933 184.997 36.9233 185.231 37.01C185.465 37.0967 185.725 37.14 186.011 37.14C186.184 37.14 186.34 37.127 186.479 37.101C186.626 37.075 186.756 37.036 186.869 36.984C186.981 36.932 187.068 36.867 187.129 36.789C187.189 36.7023 187.22 36.607 187.22 36.503C187.22 36.295 187.111 36.1607 186.895 36.1C186.687 36.0393 186.379 36.009 185.972 36.009C185.954 36.009 185.933 36.009 185.907 36.009C185.889 36.009 185.868 36.009 185.842 36.009C185.824 36.009 185.803 36.009 185.777 36.009C185.751 36.009 185.725 36.009 185.699 36.009C185.681 36.009 185.664 36.009 185.647 36.009C184.364 36.009 183.298 35.944 182.449 35.814C181.599 35.6753 180.928 35.4847 180.434 35.242C179.94 34.9993 179.589 34.7133 179.381 34.384C179.173 34.046 179.069 33.669 179.069 33.253C179.069 32.811 179.186 32.4123 179.42 32.057C179.654 31.693 179.983 31.3767 180.408 31.108C180.841 30.8307 181.344 30.601 181.916 30.419C182.496 30.237 183.129 30.0983 183.814 30.003C184.507 29.9077 185.231 29.86 185.985 29.86C187.051 29.86 188.004 29.9553 188.845 30.146C189.694 30.3367 190.405 30.6097 190.977 30.965C191.557 31.3203 191.973 31.745 192.225 32.239C192.476 32.733 192.537 33.2877 192.407 33.903L187.038 34.15C187.133 33.8987 187.129 33.695 187.025 33.539C186.921 33.3743 186.756 33.2573 186.531 33.188C186.314 33.11 186.067 33.071 185.79 33.071C185.616 33.071 185.46 33.0883 185.322 33.123C185.183 33.149 185.062 33.1923 184.958 33.253C184.862 33.305 184.784 33.37 184.724 33.448C184.672 33.526 184.646 33.6083 184.646 33.695C184.646 33.799 184.68 33.8857 184.75 33.955C184.819 34.0157 184.923 34.059 185.062 34.085C185.209 34.111 185.4 34.124 185.634 34.124C185.651 34.124 185.668 34.124 185.686 34.124C185.712 34.124 185.733 34.124 185.751 34.124C185.777 34.124 185.798 34.124 185.816 34.124C185.842 34.124 185.863 34.124 185.881 34.124C185.907 34.124 185.933 34.124 185.959 34.124Z" fill="#072A32"/>
</svg>
