<svg width="219" height="49" viewBox="0 0 219 49" fill="none" xmlns="http://www.w3.org/2000/svg">
<path d="M61.4803 25.7092C60.2353 25.7092 59.0849 25.6304 58.0291 25.4728C56.9732 25.3152 55.9962 25.0867 55.0979 24.7873C54.2154 24.4878 53.4196 24.1254 52.7104 23.6999C52.017 23.2744 51.4024 22.7937 50.8666 22.2579C50.3308 21.7221 49.8817 21.1391 49.5192 20.5087C49.1725 19.8626 48.9125 19.1771 48.7392 18.4521C48.5658 17.7272 48.4791 16.9629 48.4791 16.1592C48.4791 14.8512 48.6919 13.6772 49.1174 12.6371C49.5429 11.597 50.1417 10.6987 50.9139 9.9423C51.7019 9.18586 52.6316 8.5555 53.7032 8.05122C54.7906 7.54693 55.9883 7.17659 57.2963 6.94021C58.6043 6.68807 59.999 6.56199 61.4803 6.56199C64.0963 6.56199 66.3183 6.87717 68.1464 7.50753C69.9744 8.13789 71.4163 9.04403 72.4722 10.226C73.5438 11.4079 74.2136 12.8419 74.4815 14.5282L64.4351 16.1592C64.4351 15.7968 64.3563 15.4895 64.1987 15.2373C64.0411 14.9694 63.8284 14.7567 63.5605 14.5991C63.2926 14.4415 62.9774 14.3233 62.6149 14.2445C62.2683 14.1657 61.89 14.1263 61.4803 14.1263C60.913 14.1263 60.4087 14.2051 59.9674 14.3627C59.5262 14.5045 59.1716 14.7251 58.9037 15.0246C58.6516 15.3082 58.5255 15.6707 58.5255 16.1119C58.5255 16.3798 58.5728 16.6241 58.6673 16.8447C58.7619 17.0654 58.8958 17.2623 59.0692 17.4357C59.2425 17.5933 59.4474 17.7272 59.6838 17.8375C59.9359 17.9321 60.2117 18.0109 60.5111 18.0739C60.8105 18.1212 61.1336 18.1448 61.4803 18.1448C62.3155 18.1448 63.0168 17.9794 63.5841 17.6484C64.1514 17.3017 64.4351 16.8053 64.4351 16.1592L74.4815 17.1757C74.3081 18.3418 73.922 19.4371 73.3232 20.4614C72.7401 21.4857 71.9206 22.3919 70.8648 23.1798C69.8247 23.9678 68.5246 24.5824 66.9644 25.0236C65.42 25.4806 63.592 25.7092 61.4803 25.7092ZM88.1225 18.003C88.1225 18.0188 88.1225 18.0345 88.1225 18.0503C88.1383 18.0503 88.154 18.0503 88.1698 18.0503H97.3888V25H78.3126C78.3126 24.0229 78.3126 23.0459 78.3126 22.0688C78.3126 21.0918 78.3126 20.1147 78.3126 19.1377C78.3126 18.1448 78.3126 17.1599 78.3126 16.1829C78.3126 15.2058 78.3126 14.2287 78.3126 13.2517C78.3126 12.2589 78.3126 11.266 78.3126 10.2732C78.3126 9.26466 78.3126 8.26396 78.3126 7.27115H88.1225C88.1225 8.16941 88.1225 9.06767 88.1225 9.96593C88.1225 10.8484 88.1225 11.7388 88.1225 12.6371C88.1225 13.5353 88.1225 14.4336 88.1225 15.3319C88.1225 16.2144 88.1225 17.1048 88.1225 18.003ZM101.238 25C101.238 23.8654 101.238 22.7307 101.238 21.5961C101.238 20.4614 101.238 19.3268 101.238 18.1921C101.238 17.0575 101.238 15.9228 101.238 14.7882C101.238 13.6535 101.238 12.5189 101.238 11.3842C101.238 10.6908 101.238 10.0053 101.238 9.32769C101.238 8.6343 101.238 7.94878 101.238 7.27115H111.048C111.048 8.79977 111.048 10.3284 111.048 11.857C111.048 13.3699 111.048 14.8906 111.048 16.4192C111.048 17.3648 111.048 18.3182 111.048 19.2795C111.048 20.225 111.048 21.1784 111.048 22.1397C111.048 23.0853 111.048 24.0387 111.048 25H101.238ZM143.553 7.27115C143.553 8.45307 143.553 9.635 143.553 10.8169C143.553 11.9988 143.553 13.1808 143.553 14.3627C143.553 15.5446 143.553 16.7265 143.553 17.9085C143.553 19.0904 143.553 20.2723 143.553 21.4542C143.553 22.6362 143.553 23.8181 143.553 25H134.452C134.452 23.3611 134.452 21.7221 134.452 20.0832C134.452 18.4443 134.452 16.8053 134.452 15.1664C134.452 15.1506 134.444 15.1428 134.428 15.1428C134.428 15.1428 134.421 15.1428 134.405 15.1428C134.405 15.1428 134.405 15.1506 134.405 15.1664L132.088 25H126.06C125.666 23.3611 125.28 21.73 124.902 20.1068C124.524 18.4837 124.138 16.8605 123.744 15.2373C123.744 15.2216 123.736 15.2137 123.72 15.2137C123.72 15.2137 123.712 15.2137 123.697 15.2137C123.697 15.2137 123.697 15.2216 123.697 15.2373C123.697 16.8605 123.697 18.4837 123.697 20.1068C123.697 21.73 123.697 23.3611 123.697 25H115.069C115.069 23.8181 115.069 22.6362 115.069 21.4542C115.069 20.2565 115.069 19.0667 115.069 17.8848C115.069 16.6871 115.069 15.4973 115.069 14.3154C115.069 13.1177 115.069 11.9279 115.069 10.746C115.069 10.1629 115.069 9.58772 115.069 9.02039C115.069 8.43731 115.069 7.85423 115.069 7.27115H127.668C127.904 8.2482 128.133 9.22526 128.353 10.2023C128.574 11.1636 128.795 12.1328 129.015 13.1099C129.252 14.0869 129.48 15.064 129.701 16.041C129.701 16.0568 129.701 16.0725 129.701 16.0883C129.716 16.0883 129.724 16.0883 129.724 16.0883C129.74 16.0725 129.748 16.0568 129.748 16.041L131.639 7.27115H143.553ZM166.792 7.27115C167.076 8.2482 167.352 9.23314 167.62 10.226C167.903 11.203 168.179 12.188 168.447 13.1808C168.731 14.1578 169.014 15.1428 169.298 16.1356C169.582 17.1126 169.857 18.0976 170.125 19.0904C170.409 20.0674 170.685 21.0524 170.953 22.0452C171.236 23.0222 171.52 24.0072 171.804 25H161.261L160.859 22.6834C160.796 22.6834 160.741 22.6834 160.694 22.6834C160.646 22.6834 160.591 22.6834 160.528 22.6834H157.928C157.881 22.6834 157.833 22.6834 157.786 22.6834C157.739 22.6834 157.691 22.6834 157.644 22.6834L157.242 25H147.149C147.432 24.0072 147.708 23.0222 147.976 22.0452C148.26 21.0524 148.535 20.0674 148.803 19.0904C149.087 18.0976 149.363 17.1126 149.631 16.1356C149.914 15.1428 150.19 14.1578 150.458 13.1808C150.742 12.188 151.018 11.203 151.285 10.226C151.569 9.23314 151.845 8.2482 152.113 7.27115H166.792ZM157.928 21.0051C157.928 21.0209 157.928 21.0287 157.928 21.0287C157.928 21.0287 157.936 21.0287 157.951 21.0287H160.552C160.567 21.0287 160.575 21.0287 160.575 21.0287C160.575 21.013 160.575 21.0051 160.575 21.0051C160.575 21.0051 160.544 20.816 160.481 20.4378C160.418 20.0438 160.331 19.5553 160.221 18.9722C160.126 18.3733 160.024 17.743 159.913 17.0811C159.803 16.4035 159.701 15.7652 159.606 15.1664C159.512 14.5676 159.425 14.079 159.346 13.7008C159.283 13.3226 159.252 13.1335 159.252 13.1335C159.252 13.1335 159.244 13.1335 159.228 13.1335C159.228 13.1335 159.196 13.3226 159.133 13.7008C159.07 14.079 158.984 14.5676 158.873 15.1664C158.779 15.7652 158.676 16.4035 158.566 17.0811C158.456 17.743 158.353 18.3733 158.259 18.9722C158.164 19.5553 158.085 20.0438 158.022 20.4378C157.959 20.816 157.928 21.0051 157.928 21.0051ZM194.403 7.27115V14.4572H188.706C188.706 14.4572 188.698 14.4651 188.682 14.4809C188.682 14.4809 188.674 14.4809 188.659 14.4809C188.659 14.4809 188.659 14.4888 188.659 14.5045C188.659 15.1979 188.659 15.8992 188.659 16.6083C188.659 17.3017 188.659 18.003 188.659 18.7122C188.659 19.4056 188.659 20.1068 188.659 20.816C188.659 21.5094 188.659 22.2107 188.659 22.9198C188.659 23.6132 188.659 24.3066 188.659 25H178.849C178.849 23.8338 178.849 22.6677 178.849 21.5015C178.849 20.3353 178.849 19.1692 178.849 18.003C178.849 16.8368 178.849 15.6707 178.849 14.5045C178.849 14.4888 178.841 14.4809 178.825 14.4809C178.825 14.4651 178.817 14.4572 178.801 14.4572H173.104V7.27115H194.403ZM218.13 13.228H207.847C207.832 13.228 207.824 13.228 207.824 13.228V14.5282C207.824 14.5439 207.824 14.5597 207.824 14.5754C207.839 14.5754 207.847 14.5754 207.847 14.5754H217.775V17.9085H207.847C207.847 17.9085 207.839 17.9085 207.824 17.9085C207.824 17.9085 207.824 17.9163 207.824 17.9321C207.824 17.9321 207.824 17.94 207.824 17.9557V19.2795C207.839 19.2795 207.847 19.2795 207.847 19.2795H218.272V25H198.25C198.25 24.0702 198.25 23.1404 198.25 22.2107C198.25 21.2651 198.25 20.3275 198.25 19.3977C198.25 18.4679 198.25 17.5381 198.25 16.6083C198.25 15.6628 198.25 14.7251 198.25 13.7954C198.25 12.8498 198.25 11.9122 198.25 10.9824C198.25 10.3678 198.25 9.75319 198.25 9.13859C198.25 8.50823 198.25 7.88575 198.25 7.27115H218.13V13.228ZM60.6557 33.178C60.8289 33.7745 60.9972 34.3757 61.1607 34.9817C61.3339 35.5781 61.5022 36.1793 61.6658 36.7854C61.8389 37.3818 62.0121 37.983 62.1852 38.589C62.3584 39.1854 62.5267 39.7867 62.6902 40.3927C62.8634 40.9891 63.0317 41.5903 63.1953 42.1963C63.3684 42.7928 63.5416 43.394 63.7147 44H57.2793L57.034 42.5859C56.9955 42.5859 56.9618 42.5859 56.933 42.5859C56.9041 42.5859 56.8704 42.5859 56.832 42.5859H55.2447C55.2159 42.5859 55.187 42.5859 55.1582 42.5859C55.1293 42.5859 55.1004 42.5859 55.0716 42.5859L54.8263 44H48.665C48.8381 43.394 49.0065 42.7928 49.17 42.1963C49.3432 41.5903 49.5115 40.9891 49.675 40.3927C49.8482 39.7867 50.0165 39.1854 50.1801 38.589C50.3532 37.983 50.5215 37.3818 50.6851 36.7854C50.8582 36.1793 51.0266 35.5781 51.1901 34.9817C51.3633 34.3757 51.5316 33.7745 51.6951 33.178H60.6557ZM55.2447 41.5615C55.2447 41.5711 55.2447 41.5759 55.2447 41.5759C55.2447 41.5759 55.2495 41.5759 55.2592 41.5759H56.8464C56.856 41.5759 56.8608 41.5759 56.8608 41.5759C56.8608 41.5663 56.8608 41.5615 56.8608 41.5615C56.8608 41.5615 56.8416 41.446 56.8031 41.2152C56.7646 40.9747 56.7117 40.6765 56.6444 40.3205C56.5867 39.955 56.5241 39.5702 56.4568 39.1662C56.3895 38.7526 56.3269 38.363 56.2692 37.9974C56.2115 37.6319 56.1586 37.3337 56.1105 37.1028C56.072 36.8719 56.0528 36.7565 56.0528 36.7565C56.0528 36.7565 56.048 36.7565 56.0383 36.7565C56.0383 36.7565 56.0191 36.8719 55.9806 37.1028C55.9421 37.3337 55.8892 37.6319 55.8219 37.9974C55.7642 38.363 55.7017 38.7526 55.6343 39.1662C55.567 39.5702 55.5045 39.955 55.4467 40.3205C55.389 40.6765 55.3409 40.9747 55.3024 41.2152C55.264 41.446 55.2447 41.5615 55.2447 41.5615ZM77.0767 33.178V37.5645H73.5992C73.5992 37.5645 73.5944 37.5694 73.5848 37.579C73.5848 37.579 73.58 37.579 73.5704 37.579C73.5704 37.579 73.5704 37.5838 73.5704 37.5934C73.5704 38.0167 73.5704 38.4447 73.5704 38.8776C73.5704 39.3009 73.5704 39.7289 73.5704 40.1618C73.5704 40.5851 73.5704 41.0131 73.5704 41.446C73.5704 41.8693 73.5704 42.2973 73.5704 42.7302C73.5704 43.1535 73.5704 43.5767 73.5704 44H67.5822C67.5822 43.2882 67.5822 42.5763 67.5822 41.8645C67.5822 41.1526 67.5822 40.4408 67.5822 39.7289C67.5822 39.0171 67.5822 38.3052 67.5822 37.5934C67.5822 37.5838 67.5774 37.579 67.5678 37.579C67.5678 37.5694 67.563 37.5645 67.5534 37.5645H64.0759V33.178H77.0767ZM84.9804 39.7289C84.9804 39.7386 84.9804 39.7482 84.9804 39.7578C84.99 39.7578 84.9997 39.7578 85.0093 39.7578H90.6367V44H78.9923C78.9923 43.4036 78.9923 42.8072 78.9923 42.2108C78.9923 41.6144 78.9923 41.018 78.9923 40.4215C78.9923 39.8155 78.9923 39.2143 78.9923 38.6179C78.9923 38.0215 78.9923 37.4251 78.9923 36.8287C78.9923 36.2226 78.9923 35.6166 78.9923 35.0106C78.9923 34.3949 78.9923 33.7841 78.9923 33.178H84.9804C84.9804 33.7264 84.9804 34.2747 84.9804 34.823C84.9804 35.3617 84.9804 35.9052 84.9804 36.4535C84.9804 37.0018 84.9804 37.5501 84.9804 38.0984C84.9804 38.6371 84.9804 39.1806 84.9804 39.7289ZM104.327 33.178C104.5 33.7745 104.668 34.3757 104.832 34.9817C105.005 35.5781 105.173 36.1793 105.337 36.7854C105.51 37.3818 105.683 37.983 105.856 38.589C106.029 39.1854 106.198 39.7867 106.361 40.3927C106.534 40.9891 106.703 41.5903 106.866 42.1963C107.04 42.7928 107.213 43.394 107.386 44H100.95L100.705 42.5859C100.667 42.5859 100.633 42.5859 100.604 42.5859C100.575 42.5859 100.542 42.5859 100.503 42.5859H98.9158C98.887 42.5859 98.8581 42.5859 98.8293 42.5859C98.8004 42.5859 98.7715 42.5859 98.7427 42.5859L98.4974 44H92.3361C92.5092 43.394 92.6776 42.7928 92.8411 42.1963C93.0143 41.5903 93.1826 40.9891 93.3461 40.3927C93.5193 39.7867 93.6876 39.1854 93.8512 38.589C94.0243 37.983 94.1926 37.3818 94.3562 36.7854C94.5293 36.1793 94.6977 35.5781 94.8612 34.9817C95.0344 34.3757 95.2027 33.7745 95.3662 33.178H104.327ZM98.9158 41.5615C98.9158 41.5711 98.9158 41.5759 98.9158 41.5759C98.9158 41.5759 98.9206 41.5759 98.9303 41.5759H100.517C100.527 41.5759 100.532 41.5759 100.532 41.5759C100.532 41.5663 100.532 41.5615 100.532 41.5615C100.532 41.5615 100.513 41.446 100.474 41.2152C100.436 40.9747 100.383 40.6765 100.315 40.3205C100.258 39.955 100.195 39.5702 100.128 39.1662C100.061 38.7526 99.998 38.363 99.9403 37.9974C99.8826 37.6319 99.8297 37.3337 99.7816 37.1028C99.7431 36.8719 99.7239 36.7565 99.7239 36.7565C99.7239 36.7565 99.7191 36.7565 99.7094 36.7565C99.7094 36.7565 99.6902 36.8719 99.6517 37.1028C99.6132 37.3337 99.5603 37.6319 99.493 37.9974C99.4353 38.363 99.3728 38.7526 99.3054 39.1662C99.2381 39.5702 99.1756 39.955 99.1178 40.3205C99.0601 40.6765 99.012 40.9747 98.9735 41.2152C98.9351 41.446 98.9158 41.5615 98.9158 41.5615ZM116.24 37.478C117.683 37.478 118.89 37.5405 119.861 37.6655C120.833 37.7906 121.607 37.9878 122.184 38.2571C122.762 38.5169 123.175 38.8536 123.425 39.2672C123.676 39.6712 123.801 40.1522 123.801 40.7101C123.801 41.3162 123.603 41.8548 123.209 42.3262C122.824 42.7879 122.281 43.1775 121.578 43.495C120.886 43.8028 120.078 44.0337 119.154 44.1876C118.24 44.3511 117.254 44.4329 116.196 44.4329C115.023 44.4329 113.955 44.3463 112.993 44.1732C112.031 44 111.213 43.7355 110.54 43.3795C109.867 43.014 109.362 42.5475 109.025 41.9799C108.698 41.4124 108.568 40.7342 108.635 39.9454L114.797 39.5269C114.72 39.8155 114.739 40.056 114.854 40.2484C114.979 40.4408 115.172 40.5851 115.432 40.6813C115.691 40.7775 115.98 40.8256 116.297 40.8256C116.49 40.8256 116.663 40.8111 116.817 40.7823C116.98 40.7534 117.125 40.7101 117.25 40.6524C117.375 40.5947 117.471 40.5225 117.538 40.436C117.606 40.3398 117.639 40.234 117.639 40.1185C117.639 39.8877 117.519 39.7386 117.279 39.6712C117.048 39.6039 116.706 39.5702 116.254 39.5702C116.235 39.5702 116.211 39.5702 116.182 39.5702C116.163 39.5702 116.139 39.5702 116.11 39.5702C116.091 39.5702 116.066 39.5702 116.038 39.5702C116.009 39.5702 115.98 39.5702 115.951 39.5702C115.932 39.5702 115.913 39.5702 115.893 39.5702C114.47 39.5702 113.286 39.4981 112.344 39.3538C111.401 39.1999 110.656 38.9882 110.107 38.7189C109.559 38.4495 109.169 38.1321 108.938 37.7666C108.708 37.3914 108.592 36.9729 108.592 36.5112C108.592 36.0206 108.722 35.5781 108.982 35.1837C109.241 34.7797 109.607 34.4286 110.078 34.1304C110.559 33.8226 111.117 33.5676 111.752 33.3656C112.397 33.1636 113.099 33.0097 113.859 32.9039C114.628 32.7981 115.432 32.7452 116.268 32.7452C117.452 32.7452 118.51 32.851 119.443 33.0626C120.386 33.2742 121.174 33.5773 121.809 33.9717C122.454 34.3661 122.916 34.8374 123.195 35.3857C123.474 35.934 123.541 36.5497 123.397 37.2327L117.437 37.5068C117.543 37.2279 117.538 37.0018 117.423 36.8287C117.307 36.6459 117.125 36.516 116.875 36.4391C116.634 36.3525 116.36 36.3092 116.052 36.3092C115.86 36.3092 115.687 36.3284 115.533 36.3669C115.379 36.3958 115.244 36.4439 115.129 36.5112C115.023 36.5689 114.936 36.6411 114.869 36.7276C114.811 36.8142 114.782 36.9056 114.782 37.0018C114.782 37.1172 114.821 37.2134 114.898 37.2904C114.975 37.3577 115.09 37.4058 115.244 37.4347C115.408 37.4635 115.619 37.478 115.879 37.478C115.898 37.478 115.917 37.478 115.937 37.478C115.965 37.478 115.99 37.478 116.009 37.478C116.038 37.478 116.062 37.478 116.081 37.478C116.11 37.478 116.134 37.478 116.153 37.478C116.182 37.478 116.211 37.478 116.24 37.478ZM141.77 33.178C141.943 33.7745 142.111 34.3757 142.275 34.9817C142.448 35.5781 142.616 36.1793 142.78 36.7854C142.953 37.3818 143.126 37.983 143.299 38.589C143.472 39.1854 143.641 39.7867 143.804 40.3927C143.977 40.9891 144.146 41.5903 144.309 42.1963C144.482 42.7928 144.655 43.394 144.829 44H138.393L138.148 42.5859C138.109 42.5859 138.076 42.5859 138.047 42.5859C138.018 42.5859 137.984 42.5859 137.946 42.5859H136.359C136.33 42.5859 136.301 42.5859 136.272 42.5859C136.243 42.5859 136.214 42.5859 136.186 42.5859L135.94 44H129.779C129.952 43.394 130.12 42.7928 130.284 42.1963C130.457 41.5903 130.625 40.9891 130.789 40.3927C130.962 39.7867 131.13 39.1854 131.294 38.589C131.467 37.983 131.635 37.3818 131.799 36.7854C131.972 36.1793 132.141 35.5781 132.304 34.9817C132.477 34.3757 132.646 33.7745 132.809 33.178H141.77ZM136.359 41.5615C136.359 41.5711 136.359 41.5759 136.359 41.5759C136.359 41.5759 136.363 41.5759 136.373 41.5759H137.96C137.97 41.5759 137.975 41.5759 137.975 41.5759C137.975 41.5663 137.975 41.5615 137.975 41.5615C137.975 41.5615 137.956 41.446 137.917 41.2152C137.879 40.9747 137.826 40.6765 137.758 40.3205C137.701 39.955 137.638 39.5702 137.571 39.1662C137.503 38.7526 137.441 38.363 137.383 37.9974C137.325 37.6319 137.273 37.3337 137.224 37.1028C137.186 36.8719 137.167 36.7565 137.167 36.7565C137.167 36.7565 137.162 36.7565 137.152 36.7565C137.152 36.7565 137.133 36.8719 137.095 37.1028C137.056 37.3337 137.003 37.6319 136.936 37.9974C136.878 38.363 136.816 38.7526 136.748 39.1662C136.681 39.5702 136.618 39.955 136.561 40.3205C136.503 40.6765 136.455 40.9747 136.416 41.2152C136.378 41.446 136.359 41.5615 136.359 41.5615ZM153.66 44.4329C152.9 44.4329 152.198 44.3848 151.554 44.2886C150.909 44.1924 150.313 44.0529 149.764 43.8701C149.226 43.6874 148.74 43.4661 148.307 43.2064C147.884 42.9467 147.509 42.6533 147.182 42.3262C146.855 41.9991 146.58 41.6432 146.359 41.2584C146.148 40.864 145.989 40.4456 145.883 40.0031C145.777 39.5606 145.724 39.094 145.724 38.6035C145.724 37.805 145.854 37.0884 146.114 36.4535C146.374 35.8186 146.739 35.2703 147.21 34.8086C147.691 34.3468 148.259 33.962 148.913 33.6542C149.577 33.3464 150.308 33.1203 151.106 32.976C151.905 32.8221 152.756 32.7452 153.66 32.7452C155.257 32.7452 156.614 32.9376 157.729 33.3223C158.845 33.7071 159.725 34.2602 160.37 34.9817C161.024 35.7032 161.433 36.5785 161.596 37.6078L155.464 38.6035C155.464 38.3822 155.416 38.1946 155.32 38.0407C155.224 37.8772 155.094 37.7473 154.93 37.6511C154.767 37.5549 154.574 37.4828 154.353 37.4347C154.141 37.3866 153.91 37.3625 153.66 37.3625C153.314 37.3625 153.006 37.4106 152.737 37.5068C152.468 37.5934 152.251 37.7281 152.088 37.9108C151.934 38.084 151.857 38.3052 151.857 38.5746C151.857 38.7381 151.886 38.8872 151.943 39.0219C152.001 39.1566 152.083 39.2768 152.189 39.3826C152.294 39.4788 152.419 39.5606 152.564 39.6279C152.718 39.6856 152.886 39.7337 153.069 39.7722C153.252 39.8011 153.449 39.8155 153.66 39.8155C154.17 39.8155 154.598 39.7145 154.945 39.5125C155.291 39.3009 155.464 38.9979 155.464 38.6035L161.596 39.2239C161.491 39.9358 161.255 40.6043 160.889 41.2296C160.534 41.8548 160.033 42.408 159.389 42.8889C158.754 43.3699 157.96 43.7451 157.008 44.0144C156.065 44.2934 154.949 44.4329 153.66 44.4329ZM176.402 33.178V37.5645H172.924C172.924 37.5645 172.92 37.5694 172.91 37.579C172.91 37.579 172.905 37.579 172.896 37.579C172.896 37.579 172.896 37.5838 172.896 37.5934C172.896 38.0167 172.896 38.4447 172.896 38.8776C172.896 39.3009 172.896 39.7289 172.896 40.1618C172.896 40.5851 172.896 41.0131 172.896 41.446C172.896 41.8693 172.896 42.2973 172.896 42.7302C172.896 43.1535 172.896 43.5767 172.896 44H166.907C166.907 43.2882 166.907 42.5763 166.907 41.8645C166.907 41.1526 166.907 40.4408 166.907 39.7289C166.907 39.0171 166.907 38.3052 166.907 37.5934C166.907 37.5838 166.903 37.579 166.893 37.579C166.893 37.5694 166.888 37.5645 166.879 37.5645H163.401V33.178H176.402ZM178.318 44C178.318 43.3074 178.318 42.6148 178.318 41.9222C178.318 41.2296 178.318 40.537 178.318 39.8444C178.318 39.1518 178.318 38.4592 178.318 37.7666C178.318 37.0739 178.318 36.3813 178.318 35.6887C178.318 35.2655 178.318 34.847 178.318 34.4334C178.318 34.0101 178.318 33.5917 178.318 33.178H184.306C184.306 34.1111 184.306 35.0442 184.306 35.9773C184.306 36.9008 184.306 37.8291 184.306 38.7622C184.306 39.3393 184.306 39.9213 184.306 40.5081C184.306 41.0853 184.306 41.6673 184.306 42.2541C184.306 42.8312 184.306 43.4132 184.306 44H178.318ZM194.119 32.7452C195.889 32.7452 197.36 32.9953 198.534 33.4955C199.708 33.9957 200.588 34.6835 201.175 35.5589C201.761 36.4343 202.055 37.4395 202.055 38.5746C202.055 39.1902 201.963 39.7867 201.781 40.3638C201.598 40.9314 201.309 41.4653 200.915 41.9655C200.52 42.4561 200.011 42.8889 199.385 43.2641C198.76 43.6296 198.01 43.9134 197.134 44.1154C196.269 44.3271 195.263 44.4329 194.119 44.4329C193.301 44.4329 192.551 44.3752 191.868 44.2597C191.194 44.1539 190.584 44.0048 190.035 43.8124C189.487 43.6104 189.001 43.3699 188.578 43.091C188.164 42.812 187.803 42.5042 187.496 42.1675C187.197 41.8212 186.947 41.4556 186.745 41.0709C186.553 40.6861 186.409 40.2821 186.312 39.8588C186.226 39.4355 186.183 39.0075 186.183 38.5746C186.183 38.007 186.255 37.4683 186.399 36.9585C186.553 36.4487 186.774 35.9773 187.063 35.5444C187.361 35.1116 187.727 34.7268 188.159 34.3901C188.602 34.0438 189.117 33.7504 189.703 33.5099C190.29 33.2598 190.949 33.0722 191.68 32.9472C192.421 32.8125 193.234 32.7452 194.119 32.7452ZM194.133 37.3337C193.796 37.3337 193.508 37.3722 193.267 37.4491C193.037 37.5164 192.849 37.6126 192.705 37.7377C192.57 37.8531 192.469 37.9878 192.402 38.1417C192.344 38.286 192.315 38.4351 192.315 38.589C192.315 38.791 192.373 38.9882 192.488 39.1806C192.604 39.373 192.796 39.5317 193.065 39.6568C193.335 39.7818 193.691 39.8444 194.133 39.8444C194.393 39.8444 194.619 39.8203 194.811 39.7722C195.013 39.7241 195.182 39.6616 195.316 39.5846C195.461 39.4981 195.576 39.4019 195.663 39.2961C195.759 39.1806 195.826 39.0652 195.865 38.9498C195.903 38.8247 195.922 38.6996 195.922 38.5746C195.922 38.4303 195.889 38.286 195.821 38.1417C195.764 37.9974 195.667 37.8676 195.533 37.7521C195.398 37.6271 195.215 37.5261 194.984 37.4491C194.754 37.3722 194.47 37.3337 194.133 37.3337ZM212.46 33.178H218.015C218.015 33.534 218.015 33.8947 218.015 34.2602C218.015 34.6162 218.015 34.9769 218.015 35.3424C218.015 35.6984 218.015 36.0591 218.015 36.4246C218.015 36.7806 218.015 37.1413 218.015 37.5068C218.015 37.8627 218.015 38.2235 218.015 38.589C218.015 39.4933 218.015 40.3975 218.015 41.3017C218.015 42.1963 218.015 43.0958 218.015 44H211.335L209.516 38.8055C209.516 38.7958 209.512 38.791 209.502 38.791C209.502 38.791 209.497 38.791 209.488 38.791C209.488 38.791 209.488 38.7958 209.488 38.8055C209.488 39.652 209.488 40.5177 209.488 41.4027C209.488 42.2877 209.488 43.1535 209.488 44H203.932C203.932 43.2785 203.932 42.5571 203.932 41.8356C203.932 41.1141 203.932 40.3927 203.932 39.6712C203.932 38.9498 203.932 38.2283 203.932 37.5068C203.932 36.7854 203.932 36.0639 203.932 35.3424C203.932 34.621 203.932 33.8995 203.932 33.178H210.397L212.431 39.1662C212.441 39.1662 212.446 39.1662 212.446 39.1662C212.455 39.1662 212.46 39.1662 212.46 39.1662C212.46 39.1566 212.46 39.1518 212.46 39.1518V33.178Z" fill="white"/>
<path d="M36.7335 19.019C36.7455 19.0484 41.0324 29.6062 31.9837 39.1493C27.1776 44.2179 19.1027 45.8278 13.4637 44.4401C8.38522 45.643 4.29001 43.5543 4.29001 43.5543C4.37404 43.562 23.8452 45.4214 29.2398 30.9174C23.5756 40.1364 12.913 41.4437 12.8768 41.4481C12.8768 41.4481 10.9474 34.3872 17.2511 28.8923C25.7701 21.4665 33.4228 24.4609 36.7335 19.019Z" fill="#6BFEAB"/>
<path fill-rule="evenodd" clip-rule="evenodd" d="M17.9991 7.1462C19.5016 7.16686 20.9976 7.38128 22.4405 7.77269C22.7982 7.88171 23.1604 7.97387 23.5099 8.10689L24.0372 8.29445L24.555 8.50642C24.9029 8.64004 25.2339 8.81378 25.5723 8.96707C25.7394 9.04872 25.902 9.13992 26.066 9.22689C26.2292 9.31603 26.3954 9.39906 26.5528 9.49843C27.8335 10.2503 29.0228 11.1505 30.0597 12.1956L30.0602 12.195C32.1409 14.2741 33.6697 16.8754 34.389 19.6574C34.0619 18.8953 33.6858 18.1589 33.2667 17.4528C32.9332 17.3861 32.608 17.3048 32.2747 17.2633L31.6718 17.1868L31.3726 17.1497L31.0697 17.1384C30.6665 17.1262 30.2704 17.0922 29.8696 17.1215L29.2737 17.1388C29.0769 17.1531 28.8804 17.1794 28.6846 17.1991C29.6355 18.4518 30.4455 19.8008 31.0611 21.2287C30.1128 19.8087 29.0401 18.494 27.8514 17.3108C26.565 17.5131 25.31 17.8634 24.1062 18.3341C22.9487 18.7861 21.8395 19.3443 20.7826 19.9886C21.7808 21.0823 22.7183 22.2274 23.5806 23.426C22.4054 22.4159 21.2246 21.4256 20.0273 20.4686C18.6996 21.3514 17.462 22.3716 16.3285 23.4933C15.1667 24.6695 14.1141 25.9572 13.2099 27.3406C13.7363 28.0215 14.272 28.6991 14.8132 29.3748C14.1634 28.8734 13.5306 28.3487 12.9143 27.8047C12.2326 28.9046 11.6441 30.0619 11.1718 31.272C10.67 32.556 10.3024 33.8975 10.1079 35.2738C10.1085 35.2742 10.1089 35.2748 10.1095 35.2754C10.5221 35.7042 10.9579 36.1119 11.4009 36.5159C10.9442 36.2339 10.5 35.929 10.0664 35.6082C10.057 35.6873 10.0453 35.7659 10.037 35.8452C10.0172 36.0422 9.99067 36.2403 9.97611 36.4384L9.95881 37.0344C9.95704 37.2333 9.93206 37.4356 9.95036 37.6338L9.97515 38.2345L9.9861 38.5374L10.0232 38.8366L10.0991 39.4395C10.1442 39.8049 10.2372 40.1605 10.3063 40.5283C10.6652 40.743 11.0313 40.9476 11.4053 41.1391C8.67668 40.2354 6.18763 38.5317 4.24869 36.3199C3.2868 35.2068 2.44696 33.9726 1.79422 32.6376C1.63601 32.3019 1.46834 31.9691 1.33492 31.6215C1.26584 31.449 1.19016 31.2782 1.12679 31.1032L0.939994 30.5765C0.812087 30.226 0.718108 29.8648 0.608106 29.5078L0.473968 28.9641C0.427331 28.7831 0.386711 28.6006 0.354242 28.4166L0.248161 27.8657L0.16687 27.3103C0.10587 26.9405 0.0832122 26.5664 0.0446464 26.1933C-0.00140209 25.4455 -0.0197003 24.6933 0.0281192 23.9433C0.0989672 22.4413 0.385292 20.9503 0.840063 19.5123C1.28835 18.0707 1.95304 16.6993 2.75298 15.4176C3.42068 14.354 4.21699 13.3756 5.09465 12.4797C5.14185 12.4287 5.1898 12.3783 5.23936 12.3298L5.24051 12.3286C5.2411 12.328 5.24184 12.3275 5.24243 12.3271C5.25777 12.3119 5.27359 12.2971 5.28932 12.2821C5.40581 12.1664 5.5231 12.0514 5.64235 11.9385C7.84579 9.86848 10.5935 8.3754 13.5244 7.66008C14.9875 7.2925 16.4976 7.13361 17.9991 7.1462ZM3.66486 27.8568C3.43208 29.2728 3.39016 30.7221 3.59952 32.1527C3.72172 32.9776 3.93734 33.791 4.24177 34.5786C4.48126 34.9656 4.73419 35.3453 5.00221 35.7151C6.3866 37.6294 8.18863 39.2529 10.2586 40.4993C10.1921 40.363 10.1256 40.2266 10.0614 40.0877C9.97859 39.8984 9.87261 39.7139 9.81142 39.5159L9.60963 38.9237L9.51008 38.6248L9.4361 38.32C9.33535 37.9129 9.23441 37.501 9.18934 37.0822L9.10555 36.4529C9.08784 36.2425 9.082 36.0315 9.07 35.8198C9.05465 35.4849 9.05538 35.1495 9.06404 34.8142C8.88083 34.6591 8.69826 34.503 8.52076 34.3408C7.6203 33.5317 6.79514 32.634 6.03458 31.6784C5.11481 30.5036 4.31111 29.2223 3.66486 27.8568ZM6.6065 20.5297C6.44554 20.7765 6.28756 21.0254 6.13624 21.2781C5.37152 22.5651 4.7407 23.9329 4.27982 25.3558C4.80761 27.3749 5.69291 29.3189 6.82423 31.1219C7.43939 32.1172 8.14771 33.0588 8.91184 33.9609C8.97088 34.0323 9.03457 34.1003 9.09479 34.1708C9.17528 33.0249 9.38537 31.8848 9.70495 30.7785C10.1383 29.2898 10.7637 27.8642 11.5397 26.5243C10.1019 25.12 8.76988 23.5971 7.57026 21.9559C7.23593 21.492 6.91407 21.0168 6.6065 20.5297ZM2.04308 22.158C1.91991 22.7889 1.81041 23.4246 1.75886 24.0675C1.63114 25.4212 1.67512 26.7933 1.87781 28.1453C1.96322 28.7431 2.08789 29.335 2.24256 29.92C2.14929 28.6757 2.22393 27.4155 2.43685 26.1872C2.49491 25.8521 2.56705 25.5196 2.64498 25.1888C2.64183 25.1778 2.63813 25.167 2.63499 25.156C2.35162 24.1827 2.14306 23.1795 2.04308 22.158ZM11.7708 14.9166C11.0223 15.5001 10.3101 16.1312 9.6375 16.8029C8.96468 17.4745 8.33519 18.1884 7.74994 18.9356C7.73246 18.9578 7.71593 18.9809 7.69844 19.0031C8.05659 19.7115 8.45238 20.4121 8.8611 21.1026C9.82143 22.695 10.8865 24.2364 12.0093 25.7525C12.851 24.435 13.8387 23.2092 14.9369 22.1023H14.9366C16.0108 21.0379 17.1961 20.0765 18.4686 19.2519C17.5076 18.5209 16.5332 17.8152 15.5381 17.1455C14.32 16.3261 13.0721 15.5564 11.7928 14.8997C11.7855 14.9054 11.7781 14.911 11.7708 14.9166ZM4.68262 16.519C4.45318 17.0265 4.26487 17.5557 4.12377 18.1016C3.79141 19.3354 3.67879 20.6338 3.74038 21.9403C3.9783 21.4007 4.23707 20.8703 4.51966 20.3537C4.83432 19.7763 5.18419 19.2199 5.55414 18.6773C5.33492 18.2365 5.13137 17.783 4.95013 17.3115C4.84841 17.0561 4.76094 16.7907 4.68262 16.519ZM18.0465 11.4936C16.6755 11.9502 15.3568 12.564 14.1137 13.3035C13.8791 13.4434 13.648 13.5889 13.4188 13.7375C13.733 13.9323 14.0431 14.1319 14.3468 14.3399C15.0753 14.8319 15.7756 15.3575 16.4544 15.905C17.5145 16.764 18.5258 17.6754 19.4869 18.6322C20.7896 17.8905 22.1724 17.2924 23.6139 16.8728C24.6362 16.5776 25.6871 16.3734 26.7448 16.2805C26.6165 16.1684 26.4896 16.0544 26.3587 15.9454C24.5715 14.435 22.5835 13.186 20.4582 12.3119C19.67 11.9852 18.8636 11.7118 18.0465 11.4936ZM24.9868 10.7672C23.6191 10.5672 22.2349 10.5988 20.8786 10.8052C20.9502 10.8391 21.0221 10.8719 21.0931 10.9065C23.3241 11.9939 25.326 13.4858 27.0164 15.2445C27.3208 15.5625 27.6127 15.8918 27.8981 16.2263C28.1503 16.2242 28.4024 16.2264 28.6543 16.238C28.866 16.25 29.0769 16.2555 29.2873 16.2732L29.9167 16.3568C30.3354 16.4013 30.7471 16.5026 31.1543 16.603L31.4591 16.6768L31.7579 16.7763L32.3504 16.9777C32.5485 17.0387 32.7329 17.1445 32.9221 17.2272L32.9219 17.227C33.0211 17.2728 33.118 17.3206 33.2158 17.3675C32.1935 15.6663 30.9116 14.1481 29.4091 12.903C28.7225 12.3197 27.9883 11.8004 27.2226 11.3385C26.4943 11.0719 25.7456 10.8793 24.9868 10.7672ZM7.92117 13.513C7.57504 13.4738 7.24503 13.4815 7.00123 13.546C6.83691 13.5893 6.72315 13.6445 6.63302 13.7165C6.5915 13.7576 6.55114 13.7999 6.51002 13.8414C6.40967 13.9855 6.33399 14.2285 6.31785 14.5381L6.31766 14.5382C6.29935 14.8476 6.32642 15.2027 6.40356 15.5683C6.47755 15.9335 6.57968 16.3065 6.707 16.682C6.74183 16.7857 6.78127 16.889 6.81885 16.9925C7.27244 16.4459 7.74866 15.9184 8.24653 15.4123C8.74322 14.9221 9.26209 14.454 9.79873 14.0073C9.53507 13.9093 9.2714 13.8178 9.00793 13.743C8.63797 13.6375 8.2685 13.5472 7.92117 13.513ZM13.8444 10.944C12.3117 10.9643 10.7871 11.2483 9.41822 11.8411C9.46761 11.8556 9.51759 11.8695 9.56639 11.8847C10.264 12.1076 10.9207 12.3817 11.5502 12.6914C12.0805 12.3315 12.6242 11.9911 13.187 11.6831C13.6626 11.4231 14.1493 11.1821 14.6445 10.9595C14.3774 10.9472 14.1106 10.9414 13.8444 10.944ZM18.007 8.87617C17.0778 8.90864 16.1498 9.00148 15.2385 9.17346C16.036 9.25966 16.8238 9.40344 17.5938 9.60317C17.7908 9.65453 17.9864 9.71058 18.1813 9.76863C18.4599 9.70567 18.7397 9.64832 19.0213 9.59952C20.1912 9.39663 21.3899 9.31856 22.5763 9.39216C22.4075 9.34907 22.238 9.30792 22.0684 9.26936C21.3993 9.13003 20.726 9.01047 20.0461 8.95438C19.3684 8.88197 18.6863 8.86731 18.007 8.87617Z" fill="#6BFEAB"/>
</svg>
