<svg width="38" height="38" viewBox="0 0 38 38" fill="none" xmlns="http://www.w3.org/2000/svg">
<path d="M36.7335 12.0195C36.7455 12.0489 41.0324 22.6067 31.9837 32.1498C27.1776 37.2184 19.1027 38.8283 13.4637 37.4406C8.38522 38.6435 4.29001 36.5548 4.29001 36.5548C4.37404 36.5625 23.8452 38.4219 29.2398 23.9179C23.5756 33.1369 12.913 34.4442 12.8768 34.4486C12.8768 34.4486 10.9474 27.3877 17.2511 21.8927C25.7701 14.467 33.4228 17.4614 36.7335 12.0195Z" fill="#6BFEAB"/>
<path fill-rule="evenodd" clip-rule="evenodd" d="M17.9991 0.146687C19.5016 0.16735 20.9976 0.38177 22.4405 0.773181C22.7982 0.882195 23.1604 0.97436 23.5099 1.10738L24.0372 1.29494L24.555 1.50691C24.9029 1.64053 25.2339 1.81426 25.5723 1.96756C25.7394 2.04921 25.902 2.14041 26.066 2.22738C26.2292 2.31652 26.3954 2.39954 26.5528 2.49892C27.8335 3.25084 29.0228 4.151 30.0597 5.19611L30.0602 5.19554C32.1409 7.2746 33.6697 9.87593 34.389 12.6579C34.0619 11.8958 33.6858 11.1594 33.2667 10.4533C32.9332 10.3866 32.608 10.3053 32.2747 10.2638L31.6718 10.1873L31.3726 10.1502L31.0697 10.1389C30.6665 10.1267 30.2704 10.0926 29.8696 10.122L29.2737 10.1393C29.0769 10.1536 28.8804 10.1799 28.6846 10.1996C29.6355 11.4523 30.4455 12.8013 31.0611 14.2292C30.1128 12.8092 29.0401 11.4945 27.8514 10.3113C26.565 10.5136 25.31 10.8639 24.1062 11.3346C22.9487 11.7866 21.8395 12.3448 20.7826 12.989C21.7808 14.0828 22.7183 15.2279 23.5806 16.4265C22.4054 15.4164 21.2246 14.4261 20.0273 13.4691C18.6996 14.3519 17.462 15.3721 16.3285 16.4938C15.1667 17.67 14.1141 18.9577 13.2099 20.3411C13.7363 21.022 14.272 21.6995 14.8132 22.3753C14.1634 21.8739 13.5306 21.3491 12.9143 20.8052C12.2326 21.9051 11.6441 23.0624 11.1718 24.2725C10.67 25.5565 10.3024 26.898 10.1079 28.2743C10.1085 28.2747 10.1089 28.2753 10.1095 28.2759C10.5221 28.7047 10.9579 29.1124 11.4009 29.5164C10.9442 29.2344 10.5 28.9295 10.0664 28.6087C10.057 28.6878 10.0453 28.7664 10.037 28.8457C10.0172 29.0426 9.99067 29.2408 9.97611 29.4389L9.95881 30.0349C9.95704 30.2338 9.93206 30.4361 9.95036 30.6343L9.97515 31.235L9.9861 31.5379L10.0232 31.8371L10.0991 32.4399C10.1442 32.8054 10.2372 33.161 10.3063 33.5288C10.6652 33.7435 11.0313 33.9481 11.4053 34.1395C8.67668 33.2359 6.18763 31.5322 4.24869 29.3204C3.2868 28.2073 2.44696 26.9731 1.79422 25.6381C1.63601 25.3024 1.46834 24.9695 1.33492 24.622C1.26584 24.4494 1.19016 24.2787 1.12679 24.1037L0.939994 23.577C0.812087 23.2265 0.718108 22.8653 0.608106 22.5083L0.473968 21.9646C0.427331 21.7836 0.386711 21.6011 0.354242 21.4171L0.248161 20.8661L0.16687 20.3108C0.10587 19.941 0.0832122 19.5669 0.0446464 19.1938C-0.00140209 18.446 -0.0197003 17.6938 0.0281192 16.9438C0.0989672 15.4418 0.385292 13.9507 0.840063 12.5128C1.28835 11.0712 1.95304 9.69982 2.75298 8.41814C3.42068 7.35452 4.21699 6.37611 5.09465 5.48015C5.14185 5.42921 5.1898 5.37883 5.23936 5.33025L5.24051 5.3291C5.2411 5.32851 5.24184 5.32795 5.24243 5.32756C5.25777 5.31242 5.27359 5.29754 5.28932 5.28259C5.40581 5.16689 5.5231 5.05193 5.64235 4.93898C7.84579 2.86897 10.5935 1.37589 13.5244 0.660566C14.9875 0.292987 16.4976 0.134098 17.9991 0.146687ZM3.66486 20.8573C3.43208 22.2733 3.39016 23.7226 3.59952 25.1532C3.72172 25.9781 3.93734 26.7915 4.24177 27.579C4.48126 27.9661 4.73419 28.3458 5.00221 28.7156C6.3866 30.6299 8.18863 32.2533 10.2586 33.4998C10.1921 33.3635 10.1256 33.2271 10.0614 33.0882C9.97859 32.8989 9.87261 32.7144 9.81142 32.5164L9.60963 31.9241L9.51008 31.6253L9.4361 31.3205C9.33535 30.9134 9.23441 30.5015 9.18934 30.0827L9.10555 29.4533C9.08784 29.243 9.082 29.032 9.07 28.8203C9.05465 28.4854 9.05538 28.15 9.06404 27.8147C8.88083 27.6596 8.69826 27.5035 8.52076 27.3413C7.6203 26.5322 6.79514 25.6345 6.03458 24.6789C5.11481 23.5041 4.31111 22.2228 3.66486 20.8573ZM6.6065 13.5302C6.44554 13.777 6.28756 14.0259 6.13624 14.2785C5.37152 15.5655 4.7407 16.9333 4.27982 18.3563C4.80761 20.3753 5.69291 22.3194 6.82423 24.1224C7.43939 25.1177 8.14771 26.0593 8.91184 26.9614C8.97088 27.0328 9.03457 27.1008 9.09479 27.1712C9.17528 26.0254 9.38537 24.8853 9.70495 23.779C10.1383 22.2903 10.7637 20.8647 11.5397 19.5248C10.1019 18.1205 8.76988 16.5976 7.57026 14.9563C7.23593 14.4925 6.91407 14.0172 6.6065 13.5302ZM2.04308 15.1585C1.91991 15.7894 1.81041 16.4251 1.75886 17.068C1.63114 18.4217 1.67512 19.7938 1.87781 21.1458C1.96322 21.7436 2.08789 22.3355 2.24256 22.9205C2.14929 21.6762 2.22393 20.416 2.43685 19.1877C2.49491 18.8525 2.56705 18.5201 2.64498 18.1893C2.64183 18.1783 2.63813 18.1675 2.63499 18.1565C2.35162 17.1832 2.14306 16.18 2.04308 15.1585ZM11.7708 7.91713C11.0223 8.50059 10.3101 9.13173 9.6375 9.80334C8.96468 10.475 8.33519 11.1889 7.74994 11.9361C7.73246 11.9583 7.71593 11.9814 7.69844 12.0036C8.05659 12.712 8.45238 13.4126 8.8611 14.1031C9.82143 15.6955 10.8865 17.2369 12.0093 18.753C12.851 17.4355 13.8387 16.2097 14.9369 15.1028H14.9366C16.0108 14.0384 17.1961 13.077 18.4686 12.2524C17.5076 11.5214 16.5332 10.8157 15.5381 10.146C14.32 9.32658 13.0721 8.5569 11.7928 7.90022C11.7855 7.9059 11.7781 7.91145 11.7708 7.91713ZM4.68262 9.5195C4.45318 10.027 4.26487 10.5562 4.12377 11.1021C3.79141 12.3359 3.67879 13.6343 3.74038 14.9408C3.9783 14.4012 4.23707 13.8707 4.51966 13.3542C4.83432 12.7768 5.18419 12.2204 5.55414 11.6778C5.33492 11.237 5.13137 10.7835 4.95013 10.312C4.84841 10.0566 4.76094 9.79123 4.68262 9.5195ZM18.0465 4.49409C16.6755 4.95064 15.3568 5.56448 14.1137 6.30401C13.8791 6.44391 13.648 6.58939 13.4188 6.73794C13.733 6.93275 14.0431 7.13242 14.3468 7.34041C15.0753 7.83238 15.7756 8.35803 16.4544 8.90549C17.5145 9.76447 18.5258 10.6759 19.4869 11.6327C20.7896 10.891 22.1724 10.2928 23.6139 9.87329C24.6362 9.57811 25.6871 9.37389 26.7448 9.28101C26.6165 9.16885 26.4896 9.05486 26.3587 8.94585C24.5715 7.4355 22.5835 6.18651 20.4582 5.31238C19.67 4.98571 18.8636 4.71233 18.0465 4.49409ZM24.9868 3.76767C23.6191 3.56774 22.2349 3.5993 20.8786 3.80572C20.9502 3.83955 21.0221 3.87237 21.0931 3.907C23.3241 4.99444 25.326 6.48631 27.0164 8.24499C27.3208 8.56299 27.6127 8.89227 27.8981 9.22681C28.1503 9.22465 28.4024 9.22693 28.6543 9.23853C28.866 9.25054 29.0769 9.25599 29.2873 9.2737L29.9167 9.3573C30.3354 9.40178 30.7471 9.50312 31.1543 9.60348L31.4591 9.67727L31.7579 9.77682L32.3504 9.97822C32.5485 10.0392 32.7329 10.145 32.9221 10.2277L32.9219 10.2275C33.0211 10.2733 33.118 10.3211 33.2158 10.368C32.1935 8.66675 30.9116 7.14857 29.4091 5.90351C28.7225 5.32023 27.9883 4.80087 27.2226 4.33901C26.4943 4.07238 25.7456 3.87984 24.9868 3.76767ZM7.92117 6.51348C7.57504 6.47433 7.24503 6.48199 7.00123 6.54653C6.83691 6.58983 6.72315 6.64497 6.63302 6.71699C6.5915 6.75811 6.55114 6.80039 6.51002 6.84191C6.40967 6.98595 6.33399 7.22902 6.31785 7.53855L6.31766 7.53874C6.29935 7.84809 6.32642 8.20317 6.40356 8.5688C6.47755 8.93403 6.57968 9.307 6.707 9.68246C6.74183 9.78615 6.78127 9.88952 6.81885 9.99302C7.27244 9.44634 7.74866 8.91889 8.24653 8.41276C8.74322 7.92256 9.26209 7.45447 9.79873 7.00776C9.53507 6.90977 9.2714 6.81829 9.00793 6.74351C8.63797 6.63804 8.2685 6.54772 7.92117 6.51348ZM13.8444 3.94447C12.3117 3.96474 10.7871 4.24884 9.41822 4.84155C9.46761 4.85611 9.51759 4.87002 9.56639 4.88517C10.264 5.10813 10.9207 5.38219 11.5502 5.69193C12.0805 5.33202 12.6242 4.99154 13.187 4.68358C13.6626 4.42363 14.1493 4.1826 14.6445 3.96004C14.3774 3.94764 14.1106 3.94191 13.8444 3.94447ZM18.007 1.87666C17.0778 1.90913 16.1498 2.00197 15.2385 2.17395C16.036 2.26015 16.8238 2.40392 17.5938 2.60366C17.7908 2.65502 17.9864 2.71107 18.1813 2.76912C18.4599 2.70616 18.7397 2.64881 19.0213 2.60001C20.1912 2.39712 21.3899 2.31905 22.5763 2.39265C22.4075 2.34956 22.238 2.30841 22.0684 2.26985C21.3993 2.13052 20.726 2.01096 20.0461 1.95487C19.3684 1.88245 18.6863 1.8678 18.007 1.87666Z" fill="#6BFEAB"/>
</svg>
