<svg width="186" height="42" viewBox="0 0 186 42" fill="none" xmlns="http://www.w3.org/2000/svg">
<path d="M51.5477 22.6038C50.4877 22.6038 49.5081 22.5367 48.6091 22.4025C47.7101 22.2684 46.8782 22.0738 46.1133 21.8189C45.3619 21.5639 44.6843 21.2553 44.0804 20.893C43.49 20.5307 42.9667 20.1214 42.5105 19.6652C42.0543 19.209 41.6719 18.7125 41.3632 18.1758C41.068 17.6256 40.8466 17.042 40.699 16.4247C40.5514 15.8075 40.4776 15.1567 40.4776 14.4724C40.4776 13.3586 40.6588 12.359 41.0211 11.4734C41.3834 10.5878 41.8933 9.82293 42.5508 9.17885C43.2217 8.53478 44.0134 7.99805 44.9258 7.56866C45.8517 7.13928 46.8714 6.82395 47.9852 6.62267C49.0989 6.40798 50.2864 6.30064 51.5477 6.30064C53.7751 6.30064 55.6671 6.569 57.2236 7.10573C58.7801 7.64246 60.0079 8.41401 60.9069 9.42038C61.8194 10.4268 62.3897 11.6478 62.6178 13.0836L54.0636 14.4724C54.0636 14.1637 53.9965 13.9021 53.8624 13.6874C53.7282 13.4593 53.547 13.2781 53.3189 13.1439C53.0908 13.0098 52.8224 12.9091 52.5138 12.842C52.2186 12.7749 51.8966 12.7414 51.5477 12.7414C51.0646 12.7414 50.6353 12.8085 50.2596 12.9427C49.8838 13.0634 49.5819 13.2513 49.3538 13.5062C49.1391 13.7478 49.0318 14.0564 49.0318 14.4321C49.0318 14.6602 49.072 14.8682 49.1525 15.0561C49.2331 15.2439 49.3471 15.4116 49.4947 15.5592C49.6423 15.6934 49.8167 15.8075 50.018 15.9014C50.2327 15.9819 50.4675 16.049 50.7225 16.1027C50.9774 16.1429 51.2525 16.1631 51.5477 16.1631C52.2589 16.1631 52.856 16.0222 53.339 15.7404C53.8221 15.4452 54.0636 15.0225 54.0636 14.4724L62.6178 15.3378C62.4702 16.3308 62.1414 17.2634 61.6315 18.1355C61.1351 19.0077 60.4373 19.7793 59.5383 20.4502C58.6527 21.1211 57.5457 21.6444 56.2173 22.0201C54.9023 22.4093 53.3458 22.6038 51.5477 22.6038ZM74.2327 16.0423C74.2327 16.0557 74.2327 16.0691 74.2327 16.0825C74.2461 16.0825 74.2595 16.0825 74.2729 16.0825H82.1226V22H65.8798C65.8798 21.1681 65.8798 20.3361 65.8798 19.5042C65.8798 18.6723 65.8798 17.8403 65.8798 17.0084C65.8798 16.1631 65.8798 15.3244 65.8798 14.4925C65.8798 13.6606 65.8798 12.8286 65.8798 11.9967C65.8798 11.1513 65.8798 10.306 65.8798 9.46064C65.8798 8.60187 65.8798 7.74981 65.8798 6.90446H74.2327C74.2327 7.6693 74.2327 8.43414 74.2327 9.19898C74.2327 9.9504 74.2327 10.7085 74.2327 11.4734C74.2327 12.2382 74.2327 13.0031 74.2327 13.7679C74.2327 14.5193 74.2327 15.2775 74.2327 16.0423ZM85.4002 22C85.4002 21.0339 85.4002 20.0678 85.4002 19.1017C85.4002 18.1355 85.4002 17.1694 85.4002 16.2033C85.4002 15.2372 85.4002 14.2711 85.4002 13.305C85.4002 12.3389 85.4002 11.3727 85.4002 10.4066C85.4002 9.81622 85.4002 9.23253 85.4002 8.65554C85.4002 8.06514 85.4002 7.48144 85.4002 6.90446H93.7531C93.7531 8.20603 93.7531 9.5076 93.7531 10.8092C93.7531 12.0973 93.7531 13.3922 93.7531 14.6938C93.7531 15.4989 93.7531 16.3107 93.7531 17.1292C93.7531 17.9343 93.7531 18.7461 93.7531 19.5646C93.7531 20.3697 93.7531 21.1815 93.7531 22H85.4002ZM121.43 6.90446C121.43 7.91083 121.43 8.9172 121.43 9.92357C121.43 10.9299 121.43 11.9363 121.43 12.9427C121.43 13.949 121.43 14.9554 121.43 15.9618C121.43 16.9682 121.43 17.9745 121.43 18.9809C121.43 19.9873 121.43 20.9936 121.43 22H113.681C113.681 20.6045 113.681 19.209 113.681 17.8135C113.681 16.418 113.681 15.0225 113.681 13.627C113.681 13.6136 113.674 13.6069 113.661 13.6069C113.661 13.6069 113.654 13.6069 113.641 13.6069C113.641 13.6069 113.641 13.6136 113.641 13.627L111.668 22H106.536C106.2 20.6045 105.871 19.2157 105.549 17.8336C105.227 16.4515 104.899 15.0695 104.563 13.6874C104.563 13.674 104.556 13.6673 104.543 13.6673C104.543 13.6673 104.536 13.6673 104.523 13.6673C104.523 13.6673 104.523 13.674 104.523 13.6874C104.523 15.0695 104.523 16.4515 104.523 17.8336C104.523 19.2157 104.523 20.6045 104.523 22H97.1763C97.1763 20.9936 97.1763 19.9873 97.1763 18.9809C97.1763 17.9611 97.1763 16.948 97.1763 15.9417C97.1763 14.9219 97.1763 13.9088 97.1763 12.9024C97.1763 11.8826 97.1763 10.8696 97.1763 9.86318C97.1763 9.36671 97.1763 8.87694 97.1763 8.39388C97.1763 7.89741 97.1763 7.40093 97.1763 6.90446H107.904C108.106 7.73639 108.3 8.56832 108.488 9.40025C108.676 10.2188 108.864 11.044 109.051 11.8759C109.253 12.7079 109.447 13.5398 109.635 14.3717C109.635 14.3851 109.635 14.3986 109.635 14.412C109.649 14.412 109.655 14.412 109.655 14.412C109.669 14.3986 109.675 14.3851 109.675 14.3717L111.286 6.90446H121.43ZM141.217 6.90446C141.459 7.73639 141.694 8.57503 141.922 9.42038C142.163 10.2523 142.398 11.091 142.626 11.9363C142.868 12.7682 143.109 13.6069 143.351 14.4522C143.592 15.2842 143.827 16.1228 144.055 16.9682C144.297 17.8001 144.532 18.6387 144.76 19.4841C145.001 20.316 145.243 21.1546 145.484 22H136.508L136.165 20.0275C136.112 20.0275 136.065 20.0275 136.025 20.0275C135.984 20.0275 135.937 20.0275 135.884 20.0275H133.67C133.629 20.0275 133.589 20.0275 133.549 20.0275C133.509 20.0275 133.468 20.0275 133.428 20.0275L133.086 22H124.492C124.733 21.1546 124.968 20.316 125.196 19.4841C125.438 18.6387 125.672 17.8001 125.9 16.9682C126.142 16.1228 126.377 15.2842 126.605 14.4522C126.846 13.6069 127.081 12.7682 127.309 11.9363C127.551 11.091 127.786 10.2523 128.014 9.42038C128.255 8.57503 128.49 7.73639 128.718 6.90446H141.217ZM133.67 18.5985C133.67 18.6119 133.67 18.6186 133.67 18.6186C133.67 18.6186 133.676 18.6186 133.69 18.6186H135.904C135.917 18.6186 135.924 18.6186 135.924 18.6186C135.924 18.6052 135.924 18.5985 135.924 18.5985C135.924 18.5985 135.897 18.4375 135.843 18.1154C135.79 17.78 135.716 17.364 135.622 16.8675C135.542 16.3576 135.454 15.8209 135.36 15.2573C135.266 14.6803 135.179 14.1369 135.099 13.627C135.018 13.1171 134.944 12.7011 134.877 12.3791C134.824 12.0571 134.797 11.8961 134.797 11.8961C134.797 11.8961 134.79 11.8961 134.777 11.8961C134.777 11.8961 134.75 12.0571 134.696 12.3791C134.642 12.7011 134.569 13.1171 134.475 13.627C134.394 14.1369 134.307 14.6803 134.213 15.2573C134.119 15.8209 134.032 16.3576 133.951 16.8675C133.871 17.364 133.804 17.78 133.75 18.1154C133.696 18.4375 133.67 18.5985 133.67 18.5985ZM164.727 6.90446V13.0232H159.876C159.876 13.0232 159.869 13.0299 159.856 13.0433C159.856 13.0433 159.849 13.0433 159.836 13.0433C159.836 13.0433 159.836 13.05 159.836 13.0634C159.836 13.6538 159.836 14.251 159.836 14.8548C159.836 15.4452 159.836 16.0423 159.836 16.6461C159.836 17.2365 159.836 17.8336 159.836 18.4375C159.836 19.0279 159.836 19.625 159.836 20.2288C159.836 20.8192 159.836 21.4096 159.836 22H151.483C151.483 21.007 151.483 20.0141 151.483 19.0211C151.483 18.0282 151.483 17.0352 151.483 16.0423C151.483 15.0493 151.483 14.0564 151.483 13.0634C151.483 13.05 151.476 13.0433 151.463 13.0433C151.463 13.0299 151.456 13.0232 151.443 13.0232H146.592V6.90446H164.727ZM184.93 11.9766H176.174C176.161 11.9766 176.154 11.9766 176.154 11.9766V13.0836C176.154 13.097 176.154 13.1104 176.154 13.1238C176.168 13.1238 176.174 13.1238 176.174 13.1238H184.628V15.9618H176.174C176.174 15.9618 176.168 15.9618 176.154 15.9618C176.154 15.9618 176.154 15.9685 176.154 15.9819C176.154 15.9819 176.154 15.9886 176.154 16.002V17.1292C176.168 17.1292 176.174 17.1292 176.174 17.1292H185.051V22H168.003C168.003 21.2083 168.003 20.4166 168.003 19.625C168.003 18.8199 168.003 18.0215 168.003 17.2298C168.003 16.4381 168.003 15.6465 168.003 14.8548C168.003 14.0497 168.003 13.2513 168.003 12.4596C168.003 11.6545 168.003 10.8561 168.003 10.0645C168.003 9.54115 168.003 9.01783 168.003 8.49452C168.003 7.95779 168.003 7.42777 168.003 6.90446H184.93V11.9766ZM50.8456 28.7855C50.993 29.2933 51.1364 29.8052 51.2756 30.3212C51.423 30.829 51.5664 31.341 51.7056 31.857C51.853 32.3648 52.0005 32.8767 52.1479 33.3927C52.2953 33.9006 52.4387 34.4125 52.5779 34.9285C52.7254 35.4363 52.8687 35.9482 53.0079 36.4642C53.1554 36.9721 53.3028 37.484 53.4502 38H47.9707L47.7618 36.796C47.729 36.796 47.7004 36.796 47.6758 36.796C47.6512 36.796 47.6225 36.796 47.5898 36.796H46.2383C46.2137 36.796 46.1892 36.796 46.1646 36.796C46.14 36.796 46.1155 36.796 46.0909 36.796L45.882 38H40.6359C40.7833 37.484 40.9266 36.9721 41.0659 36.4642C41.2133 35.9482 41.3567 35.4363 41.4959 34.9285C41.6433 34.4125 41.7867 33.9006 41.9259 33.3927C42.0733 32.8767 42.2167 32.3648 42.3559 31.857C42.5034 31.341 42.6467 30.829 42.7859 30.3212C42.9334 29.8052 43.0767 29.2933 43.2159 28.7855H50.8456ZM46.2383 35.9237C46.2383 35.9318 46.2383 35.9359 46.2383 35.9359C46.2383 35.9359 46.2424 35.9359 46.2506 35.9359H47.6021C47.6103 35.9359 47.6144 35.9359 47.6144 35.9359C47.6144 35.9278 47.6144 35.9237 47.6144 35.9237C47.6144 35.9237 47.598 35.8254 47.5652 35.6288C47.5325 35.424 47.4874 35.1701 47.4301 34.8671C47.3809 34.5558 47.3277 34.2282 47.2703 33.8842C47.213 33.532 47.1598 33.2002 47.1106 32.889C47.0615 32.5778 47.0164 32.3238 46.9755 32.1273C46.9427 31.9307 46.9263 31.8324 46.9263 31.8324C46.9263 31.8324 46.9222 31.8324 46.9141 31.8324C46.9141 31.8324 46.8977 31.9307 46.8649 32.1273C46.8321 32.3238 46.7871 32.5778 46.7298 32.889C46.6806 33.2002 46.6274 33.532 46.57 33.8842C46.5127 34.2282 46.4595 34.5558 46.4103 34.8671C46.3612 35.1701 46.3202 35.424 46.2875 35.6288C46.2547 35.8254 46.2383 35.9237 46.2383 35.9237ZM64.8275 28.7855V32.5204H61.8666C61.8666 32.5204 61.8625 32.5245 61.8543 32.5327C61.8543 32.5327 61.8502 32.5327 61.842 32.5327C61.842 32.5327 61.842 32.5368 61.842 32.545C61.842 32.9054 61.842 33.2699 61.842 33.6384C61.842 33.9988 61.842 34.3633 61.842 34.7319C61.842 35.0923 61.842 35.4568 61.842 35.8254C61.842 36.1858 61.842 36.5502 61.842 36.9188C61.842 37.2792 61.842 37.6396 61.842 38H56.7433C56.7433 37.3939 56.7433 36.7878 56.7433 36.1817C56.7433 35.5756 56.7433 34.9694 56.7433 34.3633C56.7433 33.7572 56.7433 33.1511 56.7433 32.545C56.7433 32.5368 56.7392 32.5327 56.731 32.5327C56.731 32.5245 56.7269 32.5204 56.7187 32.5204H53.7578V28.7855H64.8275ZM71.5573 34.3633C71.5573 34.3715 71.5573 34.3797 71.5573 34.3879C71.5655 34.3879 71.5737 34.3879 71.5819 34.3879H76.3734V38H66.4586C66.4586 37.4922 66.4586 36.9844 66.4586 36.4765C66.4586 35.9687 66.4586 35.4609 66.4586 34.9531C66.4586 34.437 66.4586 33.9251 66.4586 33.4173C66.4586 32.9095 66.4586 32.4017 66.4586 31.8938C66.4586 31.3778 66.4586 30.8618 66.4586 30.3458C66.4586 29.8216 66.4586 29.3015 66.4586 28.7855H71.5573C71.5573 29.2523 71.5573 29.7192 71.5573 30.1861C71.5573 30.6447 71.5573 31.1075 71.5573 31.5744C71.5573 32.0413 71.5573 32.5081 71.5573 32.975C71.5573 33.4337 71.5573 33.8965 71.5573 34.3633ZM88.0301 28.7855C88.1775 29.2933 88.3209 29.8052 88.4601 30.3212C88.6076 30.829 88.7509 31.341 88.8901 31.857C89.0376 32.3648 89.185 32.8767 89.3324 33.3927C89.4799 33.9006 89.6232 34.4125 89.7624 34.9285C89.9099 35.4363 90.0532 35.9482 90.1925 36.4642C90.3399 36.9721 90.4873 37.484 90.6348 38H85.1552L84.9463 36.796C84.9135 36.796 84.8849 36.796 84.8603 36.796C84.8357 36.796 84.8071 36.796 84.7743 36.796H83.4228C83.3983 36.796 83.3737 36.796 83.3491 36.796C83.3246 36.796 83.3 36.796 83.2754 36.796L83.0665 38H77.8204C77.9678 37.484 78.1112 36.9721 78.2504 36.4642C78.3978 35.9482 78.5412 35.4363 78.6804 34.9285C78.8279 34.4125 78.9712 33.9006 79.1104 33.3927C79.2579 32.8767 79.4012 32.3648 79.5404 31.857C79.6879 31.341 79.8312 30.829 79.9705 30.3212C80.1179 29.8052 80.2612 29.2933 80.4005 28.7855H88.0301ZM83.4228 35.9237C83.4228 35.9318 83.4228 35.9359 83.4228 35.9359C83.4228 35.9359 83.4269 35.9359 83.4351 35.9359H84.7866C84.7948 35.9359 84.7989 35.9359 84.7989 35.9359C84.7989 35.9278 84.7989 35.9237 84.7989 35.9237C84.7989 35.9237 84.7825 35.8254 84.7497 35.6288C84.717 35.424 84.6719 35.1701 84.6146 34.8671C84.5654 34.5558 84.5122 34.2282 84.4549 33.8842C84.3975 33.532 84.3443 33.2002 84.2952 32.889C84.246 32.5778 84.201 32.3238 84.16 32.1273C84.1272 31.9307 84.1109 31.8324 84.1109 31.8324C84.1109 31.8324 84.1068 31.8324 84.0986 31.8324C84.0986 31.8324 84.0822 31.9307 84.0494 32.1273C84.0167 32.3238 83.9716 32.5778 83.9143 32.889C83.8651 33.2002 83.8119 33.532 83.7546 33.8842C83.6972 34.2282 83.644 34.5558 83.5948 34.8671C83.5457 35.1701 83.5047 35.424 83.472 35.6288C83.4392 35.8254 83.4228 35.9237 83.4228 35.9237ZM98.1735 32.4467C99.4021 32.4467 100.43 32.4999 101.257 32.6064C102.085 32.7129 102.744 32.8808 103.235 33.1101C103.727 33.3313 104.079 33.618 104.292 33.9702C104.505 34.3142 104.611 34.7237 104.611 35.1988C104.611 35.7148 104.443 36.1735 104.108 36.5748C103.78 36.968 103.317 37.2997 102.719 37.57C102.13 37.8321 101.442 38.0287 100.655 38.1597C99.8772 38.299 99.0376 38.3686 98.1366 38.3686C97.1374 38.3686 96.2282 38.2949 95.4091 38.1474C94.5901 38 93.8939 37.7748 93.3205 37.4717C92.7472 37.1605 92.3171 36.7632 92.0305 36.28C91.752 35.7967 91.6414 35.2193 91.6987 34.5476L96.9449 34.1913C96.8794 34.437 96.8958 34.6418 96.994 34.8056C97.1005 34.9694 97.2643 35.0923 97.4855 35.1742C97.7066 35.2561 97.9524 35.2971 98.2226 35.2971C98.3865 35.2971 98.5339 35.2848 98.6649 35.2602C98.8042 35.2356 98.927 35.1988 99.0335 35.1496C99.14 35.1005 99.2219 35.0391 99.2792 34.9653C99.3366 34.8834 99.3652 34.7933 99.3652 34.6951C99.3652 34.4985 99.2629 34.3715 99.0581 34.3142C98.8615 34.2568 98.5708 34.2282 98.1858 34.2282C98.1694 34.2282 98.1489 34.2282 98.1244 34.2282C98.108 34.2282 98.0875 34.2282 98.0629 34.2282C98.0465 34.2282 98.0261 34.2282 98.0015 34.2282C97.9769 34.2282 97.9524 34.2282 97.9278 34.2282C97.9114 34.2282 97.895 34.2282 97.8786 34.2282C96.6664 34.2282 95.659 34.1667 94.8563 34.0439C94.0536 33.9128 93.4188 33.7326 92.9519 33.5033C92.4851 33.274 92.1533 33.0037 91.9568 32.6924C91.7602 32.373 91.6619 32.0167 91.6619 31.6235C91.6619 31.2058 91.7725 30.829 91.9936 30.4932C92.2148 30.1492 92.526 29.8502 92.9274 29.5963C93.3369 29.3342 93.812 29.1172 94.3525 28.9452C94.9013 28.7732 95.4992 28.6421 96.1463 28.552C96.8016 28.4619 97.4855 28.4169 98.1981 28.4169C99.2055 28.4169 100.107 28.507 100.901 28.6872C101.704 28.8674 102.375 29.1254 102.916 29.4612C103.465 29.797 103.858 30.1984 104.095 30.6652C104.333 31.1321 104.39 31.6563 104.267 32.2378L99.1932 32.4713C99.2833 32.2337 99.2792 32.0413 99.181 31.8938C99.0827 31.7382 98.927 31.6276 98.7141 31.5621C98.5093 31.4884 98.2759 31.4515 98.0138 31.4515C97.85 31.4515 97.7025 31.4679 97.5715 31.5007C97.4404 31.5252 97.3258 31.5662 97.2275 31.6235C97.1374 31.6727 97.0637 31.7341 97.0063 31.8078C96.9572 31.8815 96.9326 31.9594 96.9326 32.0413C96.9326 32.1396 96.9654 32.2215 97.0309 32.287C97.0964 32.3443 97.1947 32.3853 97.3258 32.4098C97.465 32.4344 97.6452 32.4467 97.8663 32.4467C97.8827 32.4467 97.8991 32.4467 97.9155 32.4467C97.9401 32.4467 97.9605 32.4467 97.9769 32.4467C98.0015 32.4467 98.022 32.4467 98.0384 32.4467C98.0629 32.4467 98.0834 32.4467 98.0998 32.4467C98.1244 32.4467 98.1489 32.4467 98.1735 32.4467ZM119.911 28.7855C120.059 29.2933 120.202 29.8052 120.341 30.3212C120.489 30.829 120.632 31.341 120.771 31.857C120.919 32.3648 121.066 32.8767 121.214 33.3927C121.361 33.9006 121.505 34.4125 121.644 34.9285C121.791 35.4363 121.935 35.9482 122.074 36.4642C122.221 36.9721 122.369 37.484 122.516 38H117.037L116.828 36.796C116.795 36.796 116.766 36.796 116.742 36.796C116.717 36.796 116.688 36.796 116.656 36.796H115.304C115.28 36.796 115.255 36.796 115.23 36.796C115.206 36.796 115.181 36.796 115.157 36.796L114.948 38H109.702C109.849 37.484 109.993 36.9721 110.132 36.4642C110.279 35.9482 110.423 35.4363 110.562 34.9285C110.709 34.4125 110.853 33.9006 110.992 33.3927C111.139 32.8767 111.283 32.3648 111.422 31.857C111.569 31.341 111.713 30.829 111.852 30.3212C111.999 29.8052 112.143 29.2933 112.282 28.7855H119.911ZM115.304 35.9237C115.304 35.9318 115.304 35.9359 115.304 35.9359C115.304 35.9359 115.308 35.9359 115.316 35.9359H116.668C116.676 35.9359 116.68 35.9359 116.68 35.9359C116.68 35.9278 116.68 35.9237 116.68 35.9237C116.68 35.9237 116.664 35.8254 116.631 35.6288C116.598 35.424 116.553 35.1701 116.496 34.8671C116.447 34.5558 116.394 34.2282 116.336 33.8842C116.279 33.532 116.226 33.2002 116.177 32.889C116.127 32.5778 116.082 32.3238 116.041 32.1273C116.009 31.9307 115.992 31.8324 115.992 31.8324C115.992 31.8324 115.988 31.8324 115.98 31.8324C115.98 31.8324 115.964 31.9307 115.931 32.1273C115.898 32.3238 115.853 32.5778 115.796 32.889C115.746 33.2002 115.693 33.532 115.636 33.8842C115.579 34.2282 115.525 34.5558 115.476 34.8671C115.427 35.1701 115.386 35.424 115.353 35.6288C115.321 35.8254 115.304 35.9237 115.304 35.9237ZM130.036 38.3686C129.389 38.3686 128.791 38.3276 128.242 38.2457C127.694 38.1638 127.186 38.045 126.719 37.8894C126.26 37.7338 125.847 37.5454 125.478 37.3243C125.118 37.1031 124.798 36.8533 124.52 36.5748C124.241 36.2963 124.008 35.9933 123.819 35.6656C123.639 35.3298 123.504 34.9735 123.414 34.5968C123.324 34.22 123.279 33.8227 123.279 33.405C123.279 32.7252 123.389 32.115 123.61 31.5744C123.832 31.0338 124.143 30.5669 124.544 30.1738C124.954 29.7806 125.437 29.453 125.994 29.1909C126.559 28.9288 127.182 28.7363 127.861 28.6135C128.541 28.4824 129.266 28.4169 130.036 28.4169C131.396 28.4169 132.551 28.5807 133.501 28.9083C134.451 29.2359 135.2 29.7069 135.749 30.3212C136.306 30.9355 136.654 31.6809 136.793 32.5573L131.572 33.405C131.572 33.2166 131.531 33.0569 131.449 32.9259C131.367 32.7866 131.256 32.676 131.117 32.5941C130.978 32.5122 130.814 32.4508 130.626 32.4098C130.446 32.3689 130.249 32.3484 130.036 32.3484C129.741 32.3484 129.479 32.3894 129.25 32.4713C129.02 32.545 128.836 32.6597 128.697 32.8153C128.566 32.9627 128.5 33.1511 128.5 33.3804C128.5 33.5197 128.525 33.6466 128.574 33.7613C128.623 33.876 128.693 33.9784 128.783 34.0685C128.873 34.1504 128.979 34.22 129.102 34.2773C129.233 34.3265 129.377 34.3674 129.532 34.4002C129.688 34.4248 129.856 34.437 130.036 34.437C130.47 34.437 130.835 34.351 131.13 34.179C131.424 33.9988 131.572 33.7408 131.572 33.405L136.793 33.9333C136.703 34.5394 136.503 35.1087 136.191 35.6411C135.888 36.1735 135.462 36.6444 134.914 37.054C134.373 37.4635 133.697 37.7829 132.886 38.0123C132.084 38.2498 131.134 38.3686 130.036 38.3686ZM149.4 28.7855V32.5204H146.439C146.439 32.5204 146.435 32.5245 146.427 32.5327C146.427 32.5327 146.422 32.5327 146.414 32.5327C146.414 32.5327 146.414 32.5368 146.414 32.545C146.414 32.9054 146.414 33.2699 146.414 33.6384C146.414 33.9988 146.414 34.3633 146.414 34.7319C146.414 35.0923 146.414 35.4568 146.414 35.8254C146.414 36.1858 146.414 36.5502 146.414 36.9188C146.414 37.2792 146.414 37.6396 146.414 38H141.316C141.316 37.3939 141.316 36.7878 141.316 36.1817C141.316 35.5756 141.316 34.9694 141.316 34.3633C141.316 33.7572 141.316 33.1511 141.316 32.545C141.316 32.5368 141.311 32.5327 141.303 32.5327C141.303 32.5245 141.299 32.5204 141.291 32.5204H138.33V28.7855H149.4ZM151.031 38C151.031 37.4103 151.031 36.8205 151.031 36.2308C151.031 35.6411 151.031 35.0513 151.031 34.4616C151.031 33.8719 151.031 33.2822 151.031 32.6924C151.031 32.1027 151.031 31.513 151.031 30.9232C151.031 30.5628 151.031 30.2065 151.031 29.8543C151.031 29.494 151.031 29.1377 151.031 28.7855H156.13C156.13 29.58 156.13 30.3745 156.13 31.169C156.13 31.9553 156.13 32.7457 156.13 33.5402C156.13 34.0316 156.13 34.5271 156.13 35.0268C156.13 35.5182 156.13 36.0138 156.13 36.5134C156.13 37.0048 156.13 37.5004 156.13 38H151.031ZM164.485 28.4169C165.992 28.4169 167.245 28.6298 168.245 29.0557C169.244 29.4817 169.993 30.0673 170.493 30.8127C170.993 31.558 171.242 32.4139 171.242 33.3804C171.242 33.9046 171.165 34.4125 171.009 34.9039C170.853 35.3872 170.608 35.8417 170.272 36.2677C169.936 36.6854 169.502 37.054 168.969 37.3734C168.437 37.6847 167.798 37.9263 167.053 38.0983C166.316 38.2785 165.46 38.3686 164.485 38.3686C163.789 38.3686 163.15 38.3194 162.568 38.2211C161.995 38.1311 161.475 38.0041 161.008 37.8403C160.541 37.6683 160.128 37.4635 159.767 37.226C159.415 36.9884 159.108 36.7263 158.846 36.4397C158.592 36.1448 158.379 35.8336 158.207 35.5059C158.043 35.1783 157.92 34.8343 157.838 34.4739C157.765 34.1135 157.728 33.749 157.728 33.3804C157.728 32.8972 157.789 32.4385 157.912 32.0044C158.043 31.5703 158.231 31.169 158.477 30.8004C158.731 30.4318 159.042 30.1042 159.411 29.8175C159.788 29.5226 160.226 29.2728 160.725 29.068C161.225 28.8551 161.786 28.6954 162.409 28.5889C163.039 28.4742 163.731 28.4169 164.485 28.4169ZM164.497 32.3238C164.211 32.3238 163.965 32.3566 163.76 32.4221C163.564 32.4795 163.404 32.5614 163.281 32.6679C163.166 32.7661 163.08 32.8808 163.023 33.0119C162.974 33.1347 162.949 33.2617 162.949 33.3927C162.949 33.5647 162.998 33.7326 163.097 33.8965C163.195 34.0603 163.359 34.1954 163.588 34.3019C163.817 34.4084 164.121 34.4616 164.497 34.4616C164.718 34.4616 164.911 34.4411 165.075 34.4002C165.247 34.3592 165.39 34.306 165.505 34.2405C165.628 34.1667 165.726 34.0848 165.8 33.9947C165.882 33.8965 165.939 33.7982 165.972 33.6999C166.004 33.5934 166.021 33.4869 166.021 33.3804C166.021 33.2576 165.992 33.1347 165.935 33.0119C165.886 32.889 165.804 32.7784 165.689 32.6801C165.574 32.5737 165.419 32.4877 165.222 32.4221C165.026 32.3566 164.784 32.3238 164.497 32.3238ZM180.102 28.7855H184.832C184.832 29.0885 184.832 29.3957 184.832 29.7069C184.832 30.01 184.832 30.3171 184.832 30.6284C184.832 30.9314 184.832 31.2386 184.832 31.5498C184.832 31.8529 184.832 32.16 184.832 32.4713C184.832 32.7743 184.832 33.0815 184.832 33.3927C184.832 34.1627 184.832 34.9326 184.832 35.7025C184.832 36.4642 184.832 37.2301 184.832 38H179.144L177.596 33.577C177.596 33.5688 177.592 33.5647 177.583 33.5647C177.583 33.5647 177.579 33.5647 177.571 33.5647C177.571 33.5647 177.571 33.5688 177.571 33.577C177.571 34.2978 177.571 35.035 177.571 35.7885C177.571 36.5421 177.571 37.2792 177.571 38H172.841C172.841 37.3857 172.841 36.7714 172.841 36.1571C172.841 35.5428 172.841 34.9285 172.841 34.3142C172.841 33.6999 172.841 33.0856 172.841 32.4713C172.841 31.857 172.841 31.2427 172.841 30.6284C172.841 30.0141 172.841 29.3998 172.841 28.7855H178.345L180.077 33.8842C180.086 33.8842 180.09 33.8842 180.09 33.8842C180.098 33.8842 180.102 33.8842 180.102 33.8842C180.102 33.876 180.102 33.8719 180.102 33.8719V28.7855Z" fill="#072A32"/>
<path d="M29.7312 18.0768C26.4821 20.4571 20.8746 19.4214 14.7354 24.6567C9.41209 29.1978 11.0408 35.0315 11.0408 35.0315L10.9461 35.342C8.22545 34.5681 5.82557 33.0577 3.98744 31.0464C1.61748 28.458 0.178223 25.0388 0.178223 21.2911C0.178223 20.5335 0.236391 19.7888 0.351067 19.0621C0.361039 18.9954 0.372672 18.9271 0.385968 18.8604C1.56596 11.9358 7.72021 6.6582 15.1359 6.6582C22.269 6.6582 28.2338 11.5407 29.7312 18.0768Z" fill="#6BFEAB"/>
<path d="M31.2774 16.1939C31.2876 16.2189 34.9378 25.2085 27.2331 33.3342C23.1408 37.65 16.2653 39.0207 11.4639 37.8391C7.13974 38.8634 3.6528 37.0849 3.6528 37.0849C3.72435 37.0915 20.3035 38.6747 24.8968 26.325C20.0739 34.1746 10.995 35.2878 10.9642 35.2915C10.9642 35.2915 9.32139 29.2794 14.6888 24.6006C21.9424 18.2778 28.4584 20.8275 31.2774 16.1939Z" fill="#072A32"/>
<path fill-rule="evenodd" clip-rule="evenodd" d="M15.3256 6.08457C16.6049 6.10217 17.8788 6.28474 19.1073 6.61801C19.4119 6.71083 19.7204 6.78931 20.0179 6.90257L20.4669 7.06227L20.9078 7.24276C21.204 7.35653 21.4858 7.50446 21.774 7.63498C21.9163 7.70451 22.0547 7.78216 22.1944 7.85621C22.3333 7.93212 22.4748 8.00281 22.6089 8.08742C23.6993 8.72766 24.712 9.49411 25.5948 10.384L25.5953 10.3835C27.3669 12.1538 28.6687 14.3687 29.2811 16.7375C29.0026 16.0885 28.6824 15.4615 28.3255 14.8603C28.0415 14.8035 27.7647 14.7343 27.4808 14.699L26.9675 14.6338L26.7128 14.6023L26.4549 14.5926C26.1116 14.5822 25.7743 14.5532 25.433 14.5782L24.9256 14.5929C24.7581 14.6052 24.5907 14.6276 24.424 14.6443C25.2337 15.711 25.9234 16.8596 26.4475 18.0753C25.6401 16.8663 24.7267 15.7469 23.7145 14.7394C22.6192 14.9116 21.5506 15.2099 20.5257 15.6107C19.5401 15.9956 18.5956 16.4708 17.6957 17.0194C18.5457 17.9507 19.3439 18.9257 20.0781 19.9463C19.0775 19.0862 18.072 18.243 17.0526 17.4282C15.9221 18.1798 14.8683 19.0485 13.9032 20.0036C12.9139 21.0051 12.0177 22.1015 11.2478 23.2795C11.696 23.8592 12.1522 24.4361 12.6129 25.0115C12.0597 24.5846 11.5209 24.1378 10.9961 23.6746C10.4157 24.6111 9.91459 25.5966 9.51245 26.6269C9.08518 27.7202 8.77214 28.8625 8.60659 30.0344L8.6079 30.0357C8.95927 30.4008 9.33033 30.7479 9.7075 31.0919C9.3186 30.8518 8.94037 30.5922 8.57124 30.3191C8.5632 30.3864 8.55324 30.4533 8.54621 30.5208C8.52928 30.6885 8.50673 30.8573 8.49434 31.026L8.47961 31.5334C8.4781 31.7028 8.45683 31.875 8.47241 32.0438L8.49352 32.5553L8.50284 32.8132L8.53442 33.0679L8.59906 33.5812C8.63743 33.8924 8.71664 34.1952 8.77545 34.5084C9.08107 34.6912 9.39275 34.8654 9.71126 35.0284C7.38791 34.259 5.26857 32.8084 3.61762 30.925C2.79861 29.9773 2.08351 28.9264 1.52772 27.7897C1.39301 27.5038 1.25024 27.2204 1.13664 26.9245C1.07782 26.7776 1.01338 26.6322 0.959425 26.4832L0.800375 26.0347C0.691466 25.7363 0.611446 25.4287 0.517783 25.1248L0.403568 24.6618C0.363858 24.5077 0.329272 24.3523 0.301625 24.1957L0.211301 23.7265L0.142085 23.2536C0.0901448 22.9388 0.0708525 22.6203 0.0380149 22.3026C-0.00119384 21.6659 -0.0167742 21.0254 0.0239426 20.3868C0.0842673 19.1078 0.328063 17.8383 0.715286 16.6139C1.09699 15.3864 1.66295 14.2188 2.34408 13.1274C2.9126 12.2218 3.59063 11.3887 4.33793 10.6258C4.37812 10.5825 4.41894 10.5396 4.46114 10.4982L4.46212 10.4972L4.46376 10.4959C4.47682 10.483 4.49029 10.4704 4.50369 10.4576C4.60288 10.3591 4.70274 10.2612 4.80428 10.1651C6.68043 8.4025 9.02001 7.1312 11.5156 6.52212C12.7614 6.20914 14.0472 6.07385 15.3256 6.08457ZM3.12051 23.719C2.9223 24.9247 2.88661 26.1587 3.06487 27.3768C3.16893 28.0792 3.35252 28.7718 3.61173 29.4423C3.81565 29.7719 4.03101 30.0952 4.25922 30.4101C5.43798 32.04 6.97235 33.4224 8.73487 34.4837C8.67825 34.3676 8.6216 34.2514 8.56699 34.1332C8.49645 33.972 8.40621 33.8149 8.3541 33.6464L8.18229 33.142L8.09753 32.8876L8.03453 32.6281C7.94874 32.2814 7.8628 31.9307 7.82443 31.5741L7.75308 31.0382C7.738 30.8591 7.73303 30.6795 7.72281 30.4992C7.70974 30.2141 7.71037 29.9285 7.71774 29.643C7.56174 29.5109 7.40629 29.378 7.25515 29.2399C6.48844 28.5509 5.78584 27.7866 5.13825 26.973C4.35509 25.9727 3.67077 24.8817 3.12051 23.719ZM5.62522 17.4802C5.48817 17.6903 5.35365 17.9023 5.22481 18.1174C4.57368 19.2132 4.03655 20.3779 3.64413 21.5895C4.09352 23.3086 4.84733 24.9639 5.81061 26.4991C6.3344 27.3466 6.93751 28.1483 7.58814 28.9164C7.63841 28.9772 7.69265 29.0351 7.74392 29.0951C7.81245 28.1194 7.99134 27.1487 8.26345 26.2067C8.63242 24.9391 9.16496 23.7253 9.82564 22.5844C8.60146 21.3887 7.46727 20.092 6.44583 18.6945C6.16116 18.2996 5.8871 17.8949 5.62522 17.4802ZM1.73962 18.8667C1.63474 19.4038 1.54151 19.9451 1.49761 20.4925C1.38886 21.6451 1.42631 22.8135 1.5989 23.9646C1.67162 24.4736 1.77777 24.9776 1.90947 25.4757C1.83005 24.4163 1.89361 23.3432 2.0749 22.2974C2.12433 22.012 2.18576 21.729 2.25211 21.4473C2.24943 21.4379 2.24629 21.4287 2.24361 21.4193C2.00233 20.5906 1.82474 19.7364 1.73962 18.8667ZM10.0225 12.7009C9.38512 13.1976 8.77871 13.735 8.20602 14.3069C7.63313 14.8788 7.09715 15.4867 6.59883 16.1229C6.58394 16.1418 6.56986 16.1614 6.55497 16.1803C6.85993 16.7835 7.19693 17.38 7.54494 17.968C8.36263 19.3239 9.26947 20.6364 10.2256 21.9272C10.9422 20.8054 11.7832 19.7617 12.7183 18.8192C13.633 17.9129 14.6419 17.0943 15.7254 16.3922C14.9072 15.7697 14.0775 15.1689 13.2302 14.5987C12.193 13.901 11.1304 13.2456 10.0411 12.6865C10.035 12.6913 10.0287 12.696 10.0225 12.7009ZM3.9871 14.0652C3.79174 14.4973 3.6314 14.9479 3.51126 15.4127C3.22826 16.4633 3.13237 17.5689 3.18482 18.6813C3.38739 18.2218 3.60773 17.7702 3.84834 17.3303C4.11626 16.8387 4.41417 16.3649 4.72917 15.903C4.54251 15.5276 4.3692 15.1415 4.21488 14.74C4.12826 14.5226 4.05378 14.2966 3.9871 14.0652ZM15.366 9.78625C14.1987 10.175 13.0758 10.6976 12.0173 11.3273C11.8176 11.4465 11.6208 11.5703 11.4256 11.6968C11.6932 11.8627 11.9573 12.0327 12.2158 12.2098C12.8361 12.6287 13.4325 13.0763 14.0104 13.5424C14.913 14.2738 15.7741 15.0498 16.5925 15.8645C17.7017 15.233 18.8791 14.7237 20.1065 14.3665C20.9769 14.1151 21.8717 13.9412 22.7723 13.8621C22.6631 13.7666 22.555 13.6696 22.4436 13.5768C20.9218 12.2908 19.2291 11.2273 17.4195 10.483C16.7484 10.2048 16.0617 9.97207 15.366 9.78625ZM21.2754 9.16772C20.1109 8.99748 18.9323 9.02436 17.7775 9.20012C17.8385 9.22893 17.8996 9.25687 17.9601 9.28635C19.8597 10.2123 21.5642 11.4826 23.0036 12.98C23.2628 13.2508 23.5113 13.5312 23.7543 13.816C23.9691 13.8142 24.1837 13.8161 24.3982 13.826C24.5785 13.8362 24.7581 13.8409 24.9372 13.8559L25.4731 13.9271C25.8296 13.965 26.1802 14.0513 26.5269 14.1367L26.7864 14.1996L27.0408 14.2843L27.5453 14.4558C27.714 14.5077 27.871 14.5978 28.0321 14.6682C28.1166 14.7072 28.1989 14.7478 28.2821 14.7877C27.4117 13.3391 26.3202 12.0465 25.0409 10.9863C24.4563 10.4897 23.8311 10.0475 23.1791 9.6542C22.559 9.42717 21.9215 9.26323 21.2754 9.16772ZM6.74462 11.5057C6.4499 11.4724 6.16891 11.4789 5.96132 11.5338C5.82141 11.5707 5.72454 11.6176 5.6478 11.679C5.61245 11.714 5.57809 11.75 5.54307 11.7853C5.45762 11.908 5.39319 12.1149 5.37944 12.3785C5.36386 12.6419 5.38674 12.9444 5.45242 13.2557C5.51542 13.5667 5.60239 13.8843 5.7108 14.204C5.74045 14.2923 5.77403 14.3803 5.80603 14.4684C6.19225 14.0029 6.59773 13.5538 7.02165 13.1229C7.44457 12.7055 7.88637 12.3069 8.3433 11.9266C8.1188 11.8431 7.89429 11.7652 7.66996 11.7016C7.35495 11.6117 7.04036 11.5348 6.74462 11.5057ZM11.7881 9.31826C10.483 9.33552 9.18484 9.57742 8.01931 10.0821C8.06137 10.0945 8.10392 10.1063 8.14547 10.1192C8.73946 10.3091 9.29863 10.5424 9.83464 10.8062C10.2862 10.4997 10.7491 10.2098 11.2283 9.94759C11.6333 9.72625 12.0477 9.52102 12.4693 9.33152C12.2419 9.32096 12.0148 9.31609 11.7881 9.31826ZM15.3323 7.55759C14.5412 7.58523 13.751 7.66429 12.9751 7.81072C13.6542 7.88411 14.3249 8.00654 14.9805 8.1766C15.1483 8.22034 15.3149 8.26806 15.4808 8.31749C15.718 8.26388 15.9562 8.21505 16.196 8.17349C17.1921 8.00074 18.2128 7.93427 19.223 7.99694C19.0793 7.96025 18.9349 7.92521 18.7905 7.89238C18.2208 7.77374 17.6476 7.67194 17.0686 7.62418C16.4916 7.56252 15.9108 7.55005 15.3323 7.55759Z" fill="#072A32"/>
<path d="M31.2774 16.1943C28.4584 20.828 21.9424 18.2783 14.6887 24.6011C9.32134 29.2798 10.9641 35.292 10.9641 35.292C10.9641 35.292 20.0657 34.1885 24.8967 26.3254C20.3035 38.6752 3.72438 37.0919 3.65283 37.0854C3.65283 37.0854 7.13973 38.8638 11.4639 37.8396C16.2653 39.0212 23.1407 37.6504 27.233 33.3346C34.9484 25.1976 31.2774 16.1943 31.2774 16.1943Z" fill="#072A32"/>
</svg>
