<svg width="187" height="181" viewBox="0 0 187 181" fill="none" xmlns="http://www.w3.org/2000/svg">
<path d="M27.5664 21.0352H16.0547V13.3242C16.0547 11.082 15.9271 9.6875 15.6719 9.14062C15.4349 8.57552 14.8971 8.29297 14.0586 8.29297C13.1107 8.29297 12.5091 8.63021 12.2539 9.30469C11.9987 9.97917 11.8711 11.4375 11.8711 13.6797V34.2422C11.8711 36.3932 11.9987 37.7969 12.2539 38.4531C12.5091 39.1094 13.0833 39.4375 13.9766 39.4375C14.8333 39.4375 15.3893 39.1094 15.6445 38.4531C15.918 37.7969 16.0547 36.2565 16.0547 33.832V28.2812H27.5664V30.0039C27.5664 34.5794 27.2383 37.8242 26.582 39.7383C25.944 41.6523 24.513 43.3294 22.2891 44.7695C20.0833 46.2096 17.3581 46.9297 14.1133 46.9297C10.7409 46.9297 7.96094 46.319 5.77344 45.0977C3.58594 43.8763 2.13672 42.1901 1.42578 40.0391C0.714844 37.8698 0.359375 34.6159 0.359375 30.2773V17.3438C0.359375 14.1536 0.46875 11.7656 0.6875 10.1797C0.90625 8.57552 1.55339 7.03516 2.62891 5.55859C3.72266 4.08203 5.22656 2.92448 7.14062 2.08594C9.07292 1.22917 11.2878 0.800781 13.7852 0.800781C17.1758 0.800781 19.974 1.45703 22.1797 2.76953C24.3854 4.08203 25.8346 5.72266 26.5273 7.69141C27.2201 9.64193 27.5664 12.6862 27.5664 16.8242V21.0352ZM42.7422 1.73047V46H31.3672V1.73047H42.7422ZM58.1094 1.73047V7.5H46.7344V1.73047H58.1094ZM58.1094 9.71484V46H46.7344V9.71484H58.1094ZM73.0117 9.71484L72.8203 13.1602C73.6771 11.793 74.6979 10.7721 75.8828 10.0977C77.0677 9.40495 78.4167 9.05859 79.9297 9.05859C82.8828 9.05859 85.207 10.4258 86.9023 13.1602C87.832 11.793 88.8802 10.7721 90.0469 10.0977C91.2135 9.40495 92.5078 9.05859 93.9297 9.05859C95.8073 9.05859 97.3568 9.51432 98.5781 10.4258C99.8177 11.3372 100.611 12.4583 100.957 13.7891C101.303 15.1016 101.477 17.2435 101.477 20.2148V46H90.7578V22.3477C90.7578 19.2487 90.6484 17.3346 90.4297 16.6055C90.2292 15.8581 89.7461 15.4844 88.9805 15.4844C88.1966 15.4844 87.6862 15.849 87.4492 16.5781C87.2305 17.3073 87.1211 19.2305 87.1211 22.3477V46H76.4023V22.9492C76.4023 19.3945 76.3112 17.2617 76.1289 16.5508C75.9648 15.8398 75.4909 15.4844 74.707 15.4844C74.2148 15.4844 73.7956 15.6758 73.4492 16.0586C73.1029 16.4232 72.9115 16.8789 72.875 17.4258C72.8385 17.9544 72.8203 19.0938 72.8203 20.8438V46H62.1016V9.71484H73.0117ZM115.176 23.7695H104.812V21.3359C104.812 18.5286 105.132 16.3685 105.77 14.8555C106.426 13.3242 107.729 11.9753 109.68 10.8086C111.63 9.64193 114.164 9.05859 117.281 9.05859C121.018 9.05859 123.835 9.72396 125.73 11.0547C127.626 12.3672 128.766 13.9896 129.148 15.9219C129.531 17.8359 129.723 21.7917 129.723 27.7891V46H118.977V42.7734C118.302 44.0677 117.427 45.043 116.352 45.6992C115.294 46.3372 114.027 46.6562 112.551 46.6562C110.618 46.6562 108.841 46.1185 107.219 45.043C105.615 43.9492 104.812 41.5703 104.812 37.9062V34.9258C104.812 32.2096 105.241 30.3594 106.098 29.375C106.954 28.3906 109.078 27.2422 112.469 25.9297C116.096 24.5078 118.038 23.5508 118.293 23.0586C118.548 22.5664 118.676 21.5638 118.676 20.0508C118.676 18.1549 118.53 16.9245 118.238 16.3594C117.965 15.776 117.5 15.4844 116.844 15.4844C116.096 15.4844 115.632 15.7305 115.449 16.2227C115.267 16.6966 115.176 17.9453 115.176 19.9688V23.7695ZM118.676 28.7461C116.908 30.0404 115.878 31.125 115.586 32C115.312 32.875 115.176 34.1328 115.176 35.7734C115.176 37.651 115.294 38.8633 115.531 39.4102C115.786 39.957 116.279 40.2305 117.008 40.2305C117.701 40.2305 118.147 40.0208 118.348 39.6016C118.566 39.1641 118.676 38.0339 118.676 36.2109V28.7461ZM145.172 4.875V10.5898H148.152V16.332H145.172V35.7461C145.172 38.1341 145.29 39.4648 145.527 39.7383C145.783 40.0117 146.812 40.1484 148.617 40.1484V46H144.16C141.645 46 139.849 45.8997 138.773 45.6992C137.698 45.4805 136.75 44.9974 135.93 44.25C135.109 43.4844 134.599 42.6185 134.398 41.6523C134.198 40.668 134.098 38.3711 134.098 34.7617V16.332H131.719V10.5898H134.098V4.875H145.172ZM175.605 28.5H161.305V36.3477C161.305 37.9883 161.423 39.0456 161.66 39.5195C161.897 39.9935 162.353 40.2305 163.027 40.2305C163.866 40.2305 164.422 39.9206 164.695 39.3008C164.987 38.6628 165.133 37.4414 165.133 35.6367V30.8516H175.605V33.5312C175.605 35.7734 175.46 37.4961 175.168 38.6992C174.895 39.9023 174.238 41.1875 173.199 42.5547C172.16 43.9219 170.839 44.9518 169.234 45.6445C167.648 46.319 165.652 46.6562 163.246 46.6562C160.913 46.6562 158.853 46.319 157.066 45.6445C155.28 44.9701 153.885 44.0495 152.883 42.8828C151.898 41.6979 151.215 40.4036 150.832 39C150.449 37.5781 150.258 35.5182 150.258 32.8203V22.2383C150.258 19.0664 150.686 16.569 151.543 14.7461C152.4 12.9049 153.803 11.5013 155.754 10.5352C157.704 9.55078 159.947 9.05859 162.48 9.05859C165.579 9.05859 168.132 9.65104 170.137 10.8359C172.16 12.0026 173.573 13.5612 174.375 15.5117C175.195 17.444 175.605 20.1693 175.605 23.6875V28.5ZM164.531 22.5938V19.9414C164.531 18.0638 164.431 16.8516 164.23 16.3047C164.03 15.7578 163.62 15.4844 163 15.4844C162.234 15.4844 161.76 15.7214 161.578 16.1953C161.396 16.651 161.305 17.8997 161.305 19.9414V22.5938H164.531ZM186.598 36.9766V46H178.258V36.9766H186.598ZM41.8945 68.7305L48.4844 113H36.6992L36.125 105.043H31.9961L31.3125 113H19.3906L25.2422 68.7305H41.8945ZM35.7969 97.1953C35.2135 92.1823 34.6302 85.9935 34.0469 78.6289C32.8802 87.0872 32.151 93.276 31.8594 97.1953H35.7969ZM74.543 90.4141H64.125V86.2305C64.125 84.7721 64.0065 83.7878 63.7695 83.2773C63.5326 82.7487 63.0951 82.4844 62.457 82.4844C61.819 82.4844 61.3906 82.7122 61.1719 83.168C60.9531 83.6237 60.8438 84.6445 60.8438 86.2305V103.348C60.8438 104.642 61.0078 105.617 61.3359 106.273C61.6641 106.911 62.1471 107.23 62.7852 107.23C63.5326 107.23 64.0339 106.893 64.2891 106.219C64.5625 105.544 64.6992 104.268 64.6992 102.391V98.0703H74.543C74.5247 100.969 74.4154 103.147 74.2148 104.605C74.0326 106.046 73.4219 107.531 72.3828 109.062C71.362 110.576 70.0221 111.724 68.3633 112.508C66.7044 113.273 64.6536 113.656 62.2109 113.656C59.0938 113.656 56.6237 113.128 54.8008 112.07C52.9779 110.995 51.6836 109.5 50.918 107.586C50.1706 105.654 49.7969 102.919 49.7969 99.3828V89.0742C49.7969 85.9935 50.1068 83.6693 50.7266 82.1016C51.3464 80.5339 52.668 79.1393 54.6914 77.918C56.7148 76.6784 59.1758 76.0586 62.0742 76.0586C64.9544 76.0586 67.4154 76.6693 69.457 77.8906C71.4987 79.112 72.8568 80.6523 73.5312 82.5117C74.2057 84.3711 74.543 87.0052 74.543 90.4141ZM89.5 71.875V77.5898H92.4805V83.332H89.5V102.746C89.5 105.134 89.6185 106.465 89.8555 106.738C90.1107 107.012 91.1406 107.148 92.9453 107.148V113H88.4883C85.9727 113 84.1771 112.9 83.1016 112.699C82.026 112.48 81.0781 111.997 80.2578 111.25C79.4375 110.484 78.9271 109.618 78.7266 108.652C78.526 107.668 78.4258 105.371 78.4258 101.762V83.332H76.0469V77.5898H78.4258V71.875H89.5ZM106.289 68.7305V74.5H94.9141V68.7305H106.289ZM106.289 76.7148V113H94.9141V76.7148H106.289ZM135.273 89.457V98.3438C135.273 101.607 135.109 104.004 134.781 105.535C134.453 107.048 133.751 108.47 132.676 109.801C131.6 111.113 130.215 112.089 128.52 112.727C126.842 113.346 124.91 113.656 122.723 113.656C120.28 113.656 118.211 113.392 116.516 112.863C114.82 112.316 113.499 111.505 112.551 110.43C111.621 109.336 110.956 108.023 110.555 106.492C110.154 104.943 109.953 102.628 109.953 99.5469V90.25C109.953 86.8776 110.318 84.2435 111.047 82.3477C111.776 80.4518 113.089 78.9297 114.984 77.7812C116.88 76.6328 119.305 76.0586 122.258 76.0586C124.737 76.0586 126.861 76.4323 128.629 77.1797C130.415 77.9089 131.792 78.8659 132.758 80.0508C133.724 81.2357 134.38 82.457 134.727 83.7148C135.091 84.9727 135.273 86.8867 135.273 89.457ZM124.227 86.7227C124.227 84.8633 124.126 83.6966 123.926 83.2227C123.725 82.7305 123.297 82.4844 122.641 82.4844C121.984 82.4844 121.547 82.7305 121.328 83.2227C121.109 83.6966 121 84.8633 121 86.7227V103.102C121 104.815 121.109 105.936 121.328 106.465C121.547 106.975 121.975 107.23 122.613 107.23C123.27 107.23 123.698 106.993 123.898 106.52C124.117 106.046 124.227 105.025 124.227 103.457V86.7227ZM150.176 76.7148L149.984 80.0508C150.786 78.7201 151.762 77.7266 152.91 77.0703C154.077 76.3958 155.417 76.0586 156.93 76.0586C158.826 76.0586 160.375 76.5052 161.578 77.3984C162.781 78.2917 163.556 79.4219 163.902 80.7891C164.249 82.138 164.422 84.3984 164.422 87.5703V113H153.375V87.8711C153.375 85.3737 153.293 83.8516 153.129 83.3047C152.965 82.7578 152.509 82.4844 151.762 82.4844C150.978 82.4844 150.486 82.8034 150.285 83.4414C150.085 84.0612 149.984 85.7383 149.984 88.4727V113H138.938V76.7148H150.176ZM57.4531 135.73L64.043 180H52.2578L51.6836 172.043H47.5547L46.8711 180H34.9492L40.8008 135.73H57.4531ZM51.3555 164.195C50.7721 159.182 50.1888 152.993 49.6055 145.629C48.4388 154.087 47.7096 160.276 47.418 164.195H51.3555ZM77.332 138.875V144.59H80.3125V150.332H77.332V169.746C77.332 172.134 77.4505 173.465 77.6875 173.738C77.9427 174.012 78.9727 174.148 80.7773 174.148V180H76.3203C73.8047 180 72.0091 179.9 70.9336 179.699C69.8581 179.48 68.9102 178.997 68.0898 178.25C67.2695 177.484 66.7591 176.618 66.5586 175.652C66.3581 174.668 66.2578 172.371 66.2578 168.762V150.332H63.8789V144.59H66.2578V138.875H77.332ZM94.1211 135.73V180H82.7461V135.73H94.1211ZM107.984 157.77H97.6211V155.336C97.6211 152.529 97.9401 150.368 98.5781 148.855C99.2344 147.324 100.538 145.975 102.488 144.809C104.439 143.642 106.973 143.059 110.09 143.059C113.827 143.059 116.643 143.724 118.539 145.055C120.435 146.367 121.574 147.99 121.957 149.922C122.34 151.836 122.531 155.792 122.531 161.789V180H111.785V176.773C111.111 178.068 110.236 179.043 109.16 179.699C108.103 180.337 106.836 180.656 105.359 180.656C103.427 180.656 101.65 180.118 100.027 179.043C98.4232 177.949 97.6211 175.57 97.6211 171.906V168.926C97.6211 166.21 98.0495 164.359 98.9062 163.375C99.763 162.391 101.887 161.242 105.277 159.93C108.905 158.508 110.846 157.551 111.102 157.059C111.357 156.566 111.484 155.564 111.484 154.051C111.484 152.155 111.339 150.924 111.047 150.359C110.773 149.776 110.309 149.484 109.652 149.484C108.905 149.484 108.44 149.73 108.258 150.223C108.076 150.697 107.984 151.945 107.984 153.969V157.77ZM111.484 162.746C109.716 164.04 108.686 165.125 108.395 166C108.121 166.875 107.984 168.133 107.984 169.773C107.984 171.651 108.103 172.863 108.34 173.41C108.595 173.957 109.087 174.23 109.816 174.23C110.509 174.23 110.956 174.021 111.156 173.602C111.375 173.164 111.484 172.034 111.484 170.211V162.746ZM148.891 155.309H139.102V153.34C139.102 151.663 139.001 150.605 138.801 150.168C138.618 149.712 138.145 149.484 137.379 149.484C136.759 149.484 136.294 149.694 135.984 150.113C135.674 150.514 135.52 151.125 135.52 151.945C135.52 153.057 135.592 153.878 135.738 154.406C135.902 154.917 136.367 155.482 137.133 156.102C137.917 156.721 139.512 157.624 141.918 158.809C145.126 160.376 147.232 161.853 148.234 163.238C149.237 164.624 149.738 166.638 149.738 169.281C149.738 172.234 149.355 174.467 148.59 175.98C147.824 177.475 146.539 178.633 144.734 179.453C142.948 180.255 140.788 180.656 138.254 180.656C135.447 180.656 133.04 180.219 131.035 179.344C129.048 178.469 127.681 177.284 126.934 175.789C126.186 174.294 125.812 172.034 125.812 169.008V167.258H135.602V169.555C135.602 171.505 135.72 172.772 135.957 173.355C136.212 173.939 136.704 174.23 137.434 174.23C138.217 174.23 138.764 174.039 139.074 173.656C139.384 173.255 139.539 172.426 139.539 171.168C139.539 169.436 139.339 168.352 138.938 167.914C138.518 167.477 136.376 166.182 132.512 164.031C129.267 162.208 127.289 160.559 126.578 159.082C125.867 157.587 125.512 155.819 125.512 153.777C125.512 150.879 125.895 148.746 126.66 147.379C127.426 145.993 128.72 144.927 130.543 144.18C132.384 143.432 134.517 143.059 136.941 143.059C139.348 143.059 141.389 143.368 143.066 143.988C144.762 144.59 146.056 145.392 146.949 146.395C147.861 147.397 148.408 148.327 148.59 149.184C148.79 150.04 148.891 151.38 148.891 153.203V155.309Z" fill="#FEFCF6"/>
</svg>
