<svg width="33" height="33" viewBox="0 0 33 33" fill="none" xmlns="http://www.w3.org/2000/svg">
<path d="M31.2774 10.1939C31.2876 10.2189 34.9378 19.2085 27.2331 27.3342C23.1408 31.65 16.2653 33.0207 11.4639 31.8391C7.13974 32.8634 3.6528 31.0849 3.6528 31.0849C3.72435 31.0915 20.3035 32.6747 24.8968 20.325C20.0739 28.1746 10.995 29.2878 10.9642 29.2915C10.9642 29.2915 9.32139 23.2794 14.6888 18.6006C21.9424 12.2778 28.4584 14.8275 31.2774 10.1939Z" fill="#072A32"/>
<path fill-rule="evenodd" clip-rule="evenodd" d="M15.3256 0.084573C16.6049 0.102167 17.8788 0.284739 19.1073 0.618012C19.4119 0.710834 19.7204 0.78931 20.0179 0.902568L20.4669 1.06227L20.9078 1.24276C21.204 1.35653 21.4858 1.50446 21.774 1.63498C21.9163 1.70451 22.0547 1.78216 22.1944 1.85621C22.3333 1.93212 22.4748 2.00281 22.6089 2.08742C23.6993 2.72766 24.712 3.49411 25.5948 4.384L25.5953 4.3835C27.3669 6.15376 28.6687 8.36871 29.2811 10.7375C29.0026 10.0885 28.6824 9.4615 28.3255 8.8603C28.0415 8.8035 27.7647 8.73431 27.4808 8.69896L26.9675 8.63384L26.7128 8.60226L26.4549 8.5926C26.1116 8.58221 25.7743 8.55324 25.433 8.5782L24.9256 8.59293C24.7581 8.60516 24.5907 8.62756 24.424 8.64431C25.2337 9.71096 25.9234 10.8596 26.4475 12.0753C25.6401 10.8663 24.7267 9.7469 23.7145 8.73938C22.6192 8.91163 21.5506 9.20992 20.5257 9.61072C19.5401 9.9956 18.5956 10.4708 17.6957 11.0194C18.5457 11.9507 19.3439 12.9257 20.0781 13.9463C19.0775 13.0862 18.072 12.243 17.0526 11.4282C15.9221 12.1798 14.8683 13.0485 13.9032 14.0036C12.9139 15.0051 12.0177 16.1015 11.2478 17.2795C11.696 17.8592 12.1522 18.4361 12.6129 19.0115C12.0597 18.5846 11.5209 18.1378 10.9961 17.6746C10.4157 18.6111 9.91459 19.5966 9.51245 20.6269C9.08518 21.7202 8.77214 22.8625 8.60659 24.0344L8.6079 24.0357C8.95927 24.4008 9.33033 24.7479 9.7075 25.0919C9.3186 24.8518 8.94037 24.5922 8.57124 24.3191C8.5632 24.3864 8.55324 24.4533 8.54621 24.5208C8.52928 24.6885 8.50673 24.8573 8.49434 25.026L8.47961 25.5334C8.4781 25.7028 8.45683 25.875 8.47241 26.0438L8.49352 26.5553L8.50284 26.8132L8.53442 27.0679L8.59906 27.5812C8.63743 27.8924 8.71664 28.1952 8.77545 28.5084C9.08107 28.6912 9.39275 28.8654 9.71126 29.0284C7.38791 28.259 5.26857 26.8084 3.61762 24.925C2.79861 23.9773 2.08351 22.9264 1.52772 21.7897C1.39301 21.5038 1.25024 21.2204 1.13664 20.9245C1.07782 20.7776 1.01338 20.6322 0.959425 20.4832L0.800375 20.0347C0.691466 19.7363 0.611446 19.4287 0.517783 19.1248L0.403568 18.6618C0.363858 18.5077 0.329272 18.3523 0.301625 18.1957L0.211301 17.7265L0.142085 17.2536C0.0901448 16.9388 0.0708525 16.6203 0.0380149 16.3026C-0.00119384 15.6659 -0.0167742 15.0254 0.0239426 14.3868C0.0842673 13.1078 0.328063 11.8383 0.715286 10.6139C1.09699 9.38641 1.66295 8.21875 2.34408 7.12744C2.9126 6.22181 3.59063 5.38872 4.33793 4.62584C4.37812 4.58247 4.41894 4.53957 4.46114 4.49821L4.46212 4.49723L4.46376 4.49592C4.47682 4.48302 4.49029 4.47036 4.50369 4.45763C4.60288 4.35911 4.70274 4.26123 4.80428 4.16506C6.68043 2.4025 9.02001 1.1312 11.5156 0.522124C12.7614 0.209142 14.0472 0.0738539 15.3256 0.084573ZM3.12051 17.719C2.9223 18.9247 2.88661 20.1587 3.06487 21.3768C3.16893 22.0792 3.35252 22.7718 3.61173 23.4423C3.81565 23.7719 4.03101 24.0952 4.25922 24.4101C5.43798 26.04 6.97235 27.4224 8.73487 28.4837C8.67825 28.3676 8.6216 28.2514 8.56699 28.1332C8.49645 27.972 8.40621 27.8149 8.3541 27.6464L8.18229 27.142L8.09753 26.8876L8.03453 26.6281C7.94874 26.2814 7.8628 25.9307 7.82443 25.5741L7.75308 25.0382C7.738 24.8591 7.73303 24.6795 7.72281 24.4992C7.70974 24.2141 7.71037 23.9285 7.71774 23.643C7.56174 23.5109 7.40629 23.378 7.25515 23.2399C6.48844 22.5509 5.78584 21.7866 5.13825 20.973C4.35509 19.9727 3.67077 18.8817 3.12051 17.719ZM5.62522 11.4802C5.48817 11.6903 5.35365 11.9023 5.22481 12.1174C4.57368 13.2132 4.03655 14.3779 3.64413 15.5895C4.09352 17.3086 4.84733 18.9639 5.81061 20.4991C6.3344 21.3466 6.93751 22.1483 7.58814 22.9164C7.63841 22.9772 7.69265 23.0351 7.74392 23.0951C7.81245 22.1194 7.99134 21.1487 8.26345 20.2067C8.63242 18.9391 9.16496 17.7253 9.82564 16.5844C8.60146 15.3887 7.46727 14.092 6.44583 12.6945C6.16116 12.2996 5.8871 11.8949 5.62522 11.4802ZM1.73962 12.8667C1.63474 13.4038 1.54151 13.9451 1.49761 14.4925C1.38886 15.6451 1.42631 16.8135 1.5989 17.9646C1.67162 18.4736 1.77777 18.9776 1.90947 19.4757C1.83005 18.4163 1.89361 17.3432 2.0749 16.2974C2.12433 16.012 2.18576 15.729 2.25211 15.4473C2.24943 15.4379 2.24629 15.4287 2.24361 15.4193C2.00233 14.5906 1.82474 13.7364 1.73962 12.8667ZM10.0225 6.70086C9.38512 7.19765 8.77871 7.73505 8.20602 8.3069C7.63313 8.87878 7.09715 9.48666 6.59883 10.1229C6.58394 10.1418 6.56986 10.1614 6.55497 10.1803C6.85993 10.7835 7.19693 11.38 7.54494 11.968C8.36263 13.3239 9.26947 14.6364 10.2256 15.9272C10.9422 14.8054 11.7832 13.7617 12.7183 12.8192C13.633 11.9129 14.6419 11.0943 15.7254 10.3922C14.9072 9.76974 14.0775 9.16886 13.2302 8.59866C12.193 7.90095 11.1304 7.24559 10.0411 6.68646C10.035 6.6913 10.0287 6.69602 10.0225 6.70086ZM3.9871 8.06522C3.79174 8.49734 3.6314 8.94793 3.51126 9.41272C3.22826 10.4633 3.13237 11.5689 3.18482 12.6813C3.38739 12.2218 3.60773 11.7702 3.84834 11.3303C4.11626 10.8387 4.41417 10.3649 4.72917 9.90296C4.54251 9.52763 4.3692 9.14151 4.21488 8.74003C4.12826 8.52257 4.05378 8.29659 3.9871 8.06522ZM15.366 3.78625C14.1987 4.17498 13.0758 4.69765 12.0173 5.32733C11.8176 5.44645 11.6208 5.57032 11.4256 5.69681C11.6932 5.86268 11.9573 6.0327 12.2158 6.2098C12.8361 6.62869 13.4325 7.07627 14.0104 7.54241C14.913 8.2738 15.7741 9.04984 16.5925 9.86451C17.7017 9.23299 18.8791 8.7237 20.1065 8.36646C20.9769 8.11512 21.8717 7.94124 22.7723 7.86215C22.6631 7.76665 22.555 7.6696 22.4436 7.57678C20.9218 6.29076 19.2291 5.22729 17.4195 4.48299C16.7484 4.20485 16.0617 3.97207 15.366 3.78625ZM21.2754 3.16772C20.1109 2.99748 18.9323 3.02436 17.7775 3.20012C17.8385 3.22893 17.8996 3.25687 17.9601 3.28635C19.8597 4.21228 21.5642 5.48256 23.0036 6.98001C23.2628 7.25079 23.5113 7.53116 23.7543 7.81601C23.9691 7.81416 24.1837 7.8161 24.3982 7.82599C24.5785 7.83621 24.7581 7.84085 24.9372 7.85593L25.4731 7.92711C25.8296 7.96498 26.1802 8.05127 26.5269 8.13672L26.7864 8.19956L27.0408 8.28432L27.5453 8.4558C27.714 8.50775 27.871 8.59784 28.0321 8.6682C28.1166 8.70724 28.1989 8.74778 28.2821 8.78765C27.4117 7.33913 26.3202 6.04645 25.0409 4.98632C24.4563 4.48968 23.8311 4.04746 23.1791 3.6542C22.559 3.42717 21.9215 3.26323 21.2754 3.16772ZM6.74462 5.50569C6.4499 5.47235 6.16891 5.47888 5.96132 5.53383C5.82141 5.5707 5.72454 5.61765 5.6478 5.67898C5.61245 5.71399 5.57809 5.74999 5.54307 5.78534C5.45762 5.90798 5.39319 6.11495 5.37944 6.3785C5.36386 6.6419 5.38674 6.94441 5.45242 7.25573C5.51542 7.56671 5.60239 7.88428 5.7108 8.20398C5.74045 8.29227 5.77403 8.38028 5.80603 8.4684C6.19225 8.00293 6.59773 7.55382 7.02165 7.12286C7.44457 6.70547 7.88637 6.30691 8.3433 5.92655C8.1188 5.84312 7.89429 5.76522 7.66996 5.70156C7.35495 5.61175 7.04036 5.53485 6.74462 5.50569ZM11.7881 3.31826C10.483 3.33552 9.18484 3.57742 8.01931 4.08209C8.06137 4.09449 8.10392 4.10634 8.14547 4.11924C8.73946 4.30908 9.29863 4.54243 9.83464 4.80616C10.2862 4.49972 10.7491 4.20981 11.2283 3.94759C11.6333 3.72625 12.0477 3.52102 12.4693 3.33152C12.2419 3.32096 12.0148 3.31609 11.7881 3.31826ZM15.3323 1.55759C14.5412 1.58523 13.751 1.66429 12.9751 1.81072C13.6542 1.88411 14.3249 2.00654 14.9805 2.1766C15.1483 2.22034 15.3149 2.26806 15.4808 2.31749C15.718 2.26388 15.9562 2.21505 16.196 2.17349C17.1921 2.00074 18.2128 1.93427 19.223 1.99694C19.0793 1.96025 18.9349 1.92521 18.7905 1.89238C18.2208 1.77374 17.6476 1.67194 17.0686 1.62418C16.4916 1.56252 15.9108 1.55005 15.3323 1.55759Z" fill="#072A32"/>
</svg>
